<svg xmlns="http://www.w3.org/2000/svg" xmlns:xlink="http://www.w3.org/1999/xlink" viewBox="0 0 308.6 438.45"><defs><style>.cls-1{fill:none;}.cls-2{clip-path:url(#clip-path);}.cls-3{fill:#ed943b;}.cls-4{fill:#ffc622;}.cls-5{fill:#fcebbb;}.cls-6{fill:#603405;}</style><clipPath id="clip-path" transform="translate(-9.47 -22.21)"><circle class="cls-1" cx="163.77" cy="163.77" r="163.77"/></clipPath></defs><g id="Camada_2" data-name="Camada 2"><g id="Camada_1-2" data-name="Camada 1"><g class="cls-2"><path class="cls-1" d="M196.17,251v0Z" transform="translate(-9.47 -22.21)"/><path class="cls-1" d="M183.67,164.86l-.3.44Z" transform="translate(-9.47 -22.21)"/><path class="cls-1" d="M188,171.74l-5.64-4.42c0-.09.07-.17.1-.26,0,.09-.07.17-.1.26Z" transform="translate(-9.47 -22.21)"/><path class="cls-1" d="M170.36,157.91l2.29,2.61Z" transform="translate(-9.47 -22.21)"/><path class="cls-1" d="M185.67,161a3.24,3.24,0,0,0-.07-1.27A3.24,3.24,0,0,1,185.67,161Z" transform="translate(-9.47 -22.21)"/><path class="cls-1" d="M185.33,162.19a8.92,8.92,0,0,1-.75,1.34A8.92,8.92,0,0,0,185.33,162.19Z" transform="translate(-9.47 -22.21)"/><path class="cls-1" d="M99.75,213l-4,1.92,4-1.92c13.32-2.88,25-.76,34.75,7.18C124.75,212.22,113.07,210.1,99.75,213Z" transform="translate(-9.47 -22.21)"/><path class="cls-1" d="M278.48,209.19c-.43.46-.87.91-1.31,1.35C277.61,210.1,278.05,209.65,278.48,209.19Z" transform="translate(-9.47 -22.21)"/><path class="cls-1" d="M202.66,97.79c1.05.86,2.19,1.64,3.22,2.53-1-.89-2.17-1.67-3.22-2.54-2.93-1.46-6-2.75-8.77-4.42C196.69,95,199.73,96.32,202.66,97.79Z" transform="translate(-9.47 -22.21)"/><path class="cls-1" d="M276.84,210.88a48.44,48.44,0,0,1-6.46,5.27A48.44,48.44,0,0,0,276.84,210.88Z" transform="translate(-9.47 -22.21)"/><path class="cls-1" d="M206.66,234.76l11,9.77-15.51,8.53,15.51-8.53h0Z" transform="translate(-9.47 -22.21)"/><path class="cls-1" d="M62.79,220.27q-2-1.2-4-2.48Q60.75,219.07,62.79,220.27Z" transform="translate(-9.47 -22.21)"/><path class="cls-1" d="M140.86,294.92c4.31,2.47,8.51,5.15,12.79,7.67.1,9.79.27,19.59.3,29.38,0-9.79-.2-19.59-.3-29.38.06-2,0-4,.12-6-.12,2-.06,4-.12,6C149.37,300.07,145.17,297.39,140.86,294.92Z" transform="translate(-9.47 -22.21)"/><path class="cls-1" d="M28.65,349.94c.09,1.23.29,2.47.41,3.7h0C28.94,352.41,28.74,351.17,28.65,349.94Z" transform="translate(-9.47 -22.21)"/><path class="cls-1" d="M268.72,217.27c-1.27.82-2.56,1.62-3.88,2.38C266.16,218.89,267.45,218.09,268.72,217.27Z" transform="translate(-9.47 -22.21)"/><path class="cls-1" d="M173.34,289.53a.45.45,0,0,1,.37-.4l.24-.21h0l-.24.21a.47.47,0,0,0-.38.4,27.67,27.67,0,0,0-.68,4.27,26.54,26.54,0,0,1,.69-4.27Z" transform="translate(-9.47 -22.21)"/><path class="cls-1" d="M108.52,244.71h0l-12-5.91Z" transform="translate(-9.47 -22.21)"/><path class="cls-1" d="M31.83,181.43c.13.61.3,1.2.46,1.8-.16-.6-.33-1.19-.46-1.8Z" transform="translate(-9.47 -22.21)"/><path class="cls-1" d="M44.59,205A47.56,47.56,0,0,1,32.7,184.84,47.56,47.56,0,0,0,44.59,205a48.56,48.56,0,0,0,12.18,11.45A48.56,48.56,0,0,1,44.59,205Z" transform="translate(-9.47 -22.21)"/><path class="cls-1" d="M287,198.54a.56.56,0,0,0-.05.08A.56.56,0,0,1,287,198.54Z" transform="translate(-9.47 -22.21)"/><path class="cls-1" d="M110.33,240.28a8.61,8.61,0,0,0-1,1.65A8.61,8.61,0,0,1,110.33,240.28Z" transform="translate(-9.47 -22.21)"/><path class="cls-3" d="M284.57,247.56a150.79,150.79,0,0,1-24.2,9.93l-23.8,12.31q-17,8.81-34,17.65C193.27,292.23,184,297,174,302.11c-.1-2.14-.21-4.24-.31-6.33s-.21-4.17-.31-6.25a26.54,26.54,0,0,0-.69,4.27q0,57,0,114v28.78c1.56-.61,2.33-.85,3-1.21q28.22-14.46,56.41-28.94c19.09-9.82,38-20.05,57.36-29.27,6.47-3.08,8.5-6.56,8.46-13.5-.16-25.36-.14-50.73-.11-76.09-4.11-12-7.65-24.68-8.32-40.41C287.45,247.14,285.54,247.06,284.57,247.56Z" transform="translate(-9.47 -22.21)"/><path class="cls-3" d="M284.57,247.56c1-.5,2.88-.42,4.92-.44-.06-1.49-.1-3-.11-4.55q-14.52,7.44-29,14.92A150.79,150.79,0,0,0,284.57,247.56Z" transform="translate(-9.47 -22.21)"/><path class="cls-3" d="M289.49,247.12c.67,15.73,4.21,28.4,8.32,40.41q0-4.41,0-8.8a141.78,141.78,0,0,1-3.56-32.19A15.61,15.61,0,0,1,289.49,247.12Z" transform="translate(-9.47 -22.21)"/><path class="cls-3" d="M296.73,234.56c.25,3.37-1.57,5.05-4.37,6.48l-3,1.53c0,1.55.05,3.06.11,4.55a15.61,15.61,0,0,0,4.77-.58,141.78,141.78,0,0,0,3.56,32.19q0-22,0-44.05a10,10,0,0,0-.12-1.44l-1.05,0C296.69,233.71,296.7,234.14,296.73,234.56Z" transform="translate(-9.47 -22.21)"/><path class="cls-3" d="M296.68,233.28l1.05,0c-.22-1.56-.73-3.11-1-4.67C296.7,230.14,296.64,231.71,296.68,233.28Z" transform="translate(-9.47 -22.21)"/><path class="cls-3" d="M190.57,221.07c11.45-10.19,24.9-12.32,39.44-6.66,1-1.66,1.83-3,2.57-4.52,8-15.88,9.74-32.94,9.2-50.36-.84-26.92-10.82-49.74-31.39-67.42-6.76-5.81-14-11.15-23.31-12.53,4.26,4,8.69,7.94,12.72,12.21,1.44,1.53,1.93,4,2.86,6,1.05.87,2.19,1.65,3.22,2.54a12.32,12.32,0,0,1,1,.94,78.87,78.87,0,0,1,19.61,38.61c2,9.71,2.32,19.39-2.17,28.72-7,14.46-19,24.16-31.49,33.31-15.69,11.48-32.82,20.15-51.87,24.7a40.1,40.1,0,0,1,4.84,33.31c11.57,2.18,22.61,3.27,34.06-.05C177.86,245.26,179,231.37,190.57,221.07Z" transform="translate(-9.47 -22.21)"/><path class="cls-3" d="M153.8,408.67c-8.66,3.61-16.44,1.93-23.62-3.81a24.54,24.54,0,0,0-4.39-2.34Q81.67,380,37.57,357.38a29.07,29.07,0,0,1-3.92-2.89l-4.59-.85h0c-.11,2.46.05,5-.26,7.4-.05.35-.11.69-.17,1C27,370.4,31.2,374.5,38.17,378c31.88,15.89,63.57,32.15,95.33,48.28l20.3,10.31V408.67Z" transform="translate(-9.47 -22.21)"/><path class="cls-3" d="M153.8,408.67v0Z" transform="translate(-9.47 -22.21)"/><path class="cls-3" d="M29.06,353.64c-.11,2.47.05,5-.26,7.41.31-2.42.15-4.94.26-7.4Z" transform="translate(-9.47 -22.21)"/><path class="cls-3" d="M71.48,203.49c-6.71-3.85-13.38-7.75-20.15-11.48-1-.55-2.77-.85-3.52-.32a3.68,3.68,0,0,0-1,3.41c1.54,3.93.46,7.07-2.26,9.93a48.56,48.56,0,0,0,12.18,11.45c.66.44,1.31.88,2,1.31q2,1.28,4,2.48c4.09,2.41,8.3,4.65,12.35,7.1,6-5.4,5.84-5.32,2-11.91C75,211.63,73.36,207.49,71.48,203.49Z" transform="translate(-9.47 -22.21)"/><path class="cls-3" d="M261.63,221.47c1.08-.6,2.15-1.2,3.21-1.82,1.32-.76,2.61-1.56,3.88-2.38l1.66-1.12a48.44,48.44,0,0,0,6.46-5.27c.12-.11.22-.23.33-.34.44-.44.88-.89,1.31-1.35a38.55,38.55,0,0,0,3-3.76h0c-5.48-3.57-.42-9.52-2.84-14.47-2.84,1.8-5.05,3.5-7.5,4.71-5.55,2.74-11.22,5.24-16.83,7.84l-8.56,19.09,5.58,4.47C254.72,225.13,258.22,223.34,261.63,221.47Z" transform="translate(-9.47 -22.21)"/><path class="cls-3" d="M281.47,205.43a38.55,38.55,0,0,1-3,3.76,37.1,37.1,0,0,0,3-3.76Z" transform="translate(-9.47 -22.21)"/><path class="cls-3" d="M277.17,210.54c-.11.11-.21.23-.33.34C277,210.77,277.06,210.65,277.17,210.54Z" transform="translate(-9.47 -22.21)"/><path class="cls-3" d="M270.38,216.15l-1.66,1.12Z" transform="translate(-9.47 -22.21)"/><path class="cls-3" d="M264.84,219.65c-1.06.62-2.13,1.22-3.21,1.82C262.71,220.87,263.78,220.27,264.84,219.65Z" transform="translate(-9.47 -22.21)"/><path class="cls-3" d="M117.7,234.2c-2.43,2.05-5.45,3.58-7.37,6.08a8.61,8.61,0,0,0-1,1.65,9,9,0,0,0-.76,2.59l1,.77,14.66,7.85,5.13,2.75c1.78-5.71,2.59-10.68-.37-15.63Z" transform="translate(-9.47 -22.21)"/><path class="cls-3" d="M108.55,244.52h0l1,.77,14.66,7.85-14.66-7.85Z" transform="translate(-9.47 -22.21)"/><path class="cls-3" d="M206.66,234.76c-2.93,2.43-5.85,4.88-8.81,7.27a7.88,7.88,0,0,1-1.86.84h0c.06,2.51.11,5,.18,7.78V251c0,1.09.05,2.21.08,3.39,0,.61,0,1.24,0,1.89l5.81-3.19,15.51-8.53Z" transform="translate(-9.47 -22.21)"/><path class="cls-3" d="M196,242.87h0c.06,2.52.11,5,.18,7.79-.07-2.76-.12-5.27-.18-7.78Z" transform="translate(-9.47 -22.21)"/><path class="cls-3" d="M196.25,254.36c0-1.18-.05-2.3-.08-3.39C196.2,252.06,196.22,253.18,196.25,254.36Z" transform="translate(-9.47 -22.21)"/><path class="cls-4" d="M153.65,302.59c-4.28-2.52-8.48-5.2-12.79-7.67q-2.16-1.23-4.36-2.37-33.63-17.31-67.35-34.46l-1.8-.92h0l.13.4L74.65,279l-10.3,22.43v33.43l-9.46-36,6.38-26-12.76-22,.25-.55,1-2.17L39.61,243a12.29,12.29,0,0,0-1.43-.61c-1.21-.45-2.62-.84-4.53-1.51V354.49a29.07,29.07,0,0,0,3.92,2.89Q81.66,380,125.79,402.52a24.54,24.54,0,0,1,4.39,2.34c7.18,5.74,15,7.42,23.62,3.81.07-1.24.2-2.47.25-3.71q0-.61,0-1.23,0-35.88-.13-71.76C153.92,322.18,153.75,312.38,153.65,302.59Z" transform="translate(-9.47 -22.21)"/><path class="cls-4" d="M134.5,220.16a46.58,46.58,0,0,1,6.43,6.44c19-4.55,36.18-13.22,51.87-24.7,12.49-9.15,24.52-18.85,31.49-33.31,4.49-9.33,4.19-19,2.17-28.72a78.87,78.87,0,0,0-19.61-38.61,12.32,12.32,0,0,0-1-.94c-1-.89-2.17-1.67-3.22-2.53-2.93-1.47-6-2.76-8.77-4.43C181,85.72,167.11,82.25,152.34,83.9c-5.56.63-11.07,3.29-16.19,5.83-14.73,7.3-24.47,20-33.63,33-3.66,5.19-7.69,10.88-8.89,16.88-5,24.93-5.82,49.78,6.12,73.42C113.07,210.1,124.75,212.22,134.5,220.16Zm89.12-57.6c-.13,4.74-3.71,7.92-8.94,7.92-4.68,0-9.05-3.68-8.89-7.47.25-5.53,4.26-9.59,9.45-9.54C220.15,153.51,223.76,157.43,223.62,162.56Zm-22-29.06c5.75,0,9.44,3.86,9.36,9.79s-4.84,10.92-10.14,10.72-9.22-5.08-9.07-11.08C192,137.17,195.8,133.49,201.67,133.5Zm-57.55,21.65c4.36-4.59,8.39-9.57,13.14-13.71,4-3.45,8.76-3.12,12.56.54,5.13,4.94,9.87,10.29,14.58,15.64a5.08,5.08,0,0,1,1.2,2.1,3.24,3.24,0,0,1,.07,1.27,4.31,4.31,0,0,1-.34,1.2,8.92,8.92,0,0,1-.75,1.34c-.29.45-.6.89-.91,1.33l-.3.44a8.68,8.68,0,0,0-1,1.76c0,.09-.07.17-.1.26l5.64,4.42,2,1.6c-6.93,6.64-13.4,13-20.12,19.09-.85.76-3.64.79-4.38,0-7.08-7.23-14-14.66-20.75-22.16-.77-.85-.69-2.48-1-3.75C140.44,162.64,140.61,158.85,144.12,155.15Zm-20.39-22c6,0,10.55,4,10.78,9.43.26,6.34-4.1,11.44-9.9,11.58-5.36.12-10-4.88-10.08-10.88S118.27,133.22,123.73,133.2Zm-12.61,20.26c4.92-.09,8.41,3.31,8.55,8.35s-3.07,8.48-8.2,8.62c-4.45.12-7.74-3.41-7.86-8.42S106.47,153.54,111.12,153.46Z" transform="translate(-9.47 -22.21)"/><path class="cls-4" d="M296.68,233.28c0-1.57,0-3.14,0-4.71l-.12-.14-10.07,1.89-6.38,3.3L221,264.26l-18.45,9.61-17.76,9.24-8.38,4.37-1.69.81-.28.18-.06,0-.47.41-.24.21a.45.45,0,0,0-.37.4h0q.15,3.12.31,6.25c.1,2.09.21,4.19.31,6.33,10-5.14,19.31-9.88,28.57-14.66q17-8.81,34-17.65l23.8-12.31q14.49-7.49,29-14.92l3-1.53c2.8-1.43,4.62-3.11,4.37-6.48C296.7,234.14,296.69,233.71,296.68,233.28Z" transform="translate(-9.47 -22.21)"/><path class="cls-4" d="M278.63,191c2.42,4.95-2.64,10.9,2.84,14.47a49.11,49.11,0,0,0,4.27-5c.43-.58.85-1.17,1.25-1.77a.56.56,0,0,1,.05-.08,46.74,46.74,0,0,0,4.78-9.27c.42-1.09.8-2.19,1.14-3.32a51.31,51.31,0,0,0,1.3-5.2c-6.6-5.55-13.47-2.73-20.08-.3-5.39,2-10.51,4.7-15.76,7.1h0q-2.06,8-4.12,16c5.61-2.6,11.28-5.1,16.83-7.84C273.58,194.46,275.79,192.76,278.63,191Z" transform="translate(-9.47 -22.21)"/><path class="cls-4" d="M46.85,195.1a3.68,3.68,0,0,1,1-3.41c.75-.53,2.53-.23,3.52.32,6.77,3.73,13.44,7.63,20.15,11.48q-1.59-6.53-3.17-13c-8.08-11.06-25-15.24-36.48-9h0c.13.61.3,1.2.46,1.8s.26,1.08.41,1.61A47.56,47.56,0,0,0,44.59,205C47.31,202.17,48.39,199,46.85,195.1Z" transform="translate(-9.47 -22.21)"/><path class="cls-4" d="M206.66,234.76l11,9.77h0l13.77-5.34h0c-4.95-2.17-9.82-4.52-14.87-6.44C213,231.4,209.37,231.29,206.66,234.76Z" transform="translate(-9.47 -22.21)"/><path class="cls-4" d="M96.54,238.8l12,5.91h0a1.08,1.08,0,0,1,0-.19h0a9,9,0,0,1,.76-2.59,8.61,8.61,0,0,1,1-1.65,10.78,10.78,0,0,1,.77-.9l.06-.06c1.89-2,4.44-3.35,6.54-5.12h0C109.46,230.29,103,234.3,96.54,238.8Z" transform="translate(-9.47 -22.21)"/><path class="cls-3" d="M286.5,230.32l10.07-1.89C292.7,225.42,289.15,226.08,286.5,230.32Z" transform="translate(-9.47 -22.21)"/><path class="cls-3" d="M182.31,167.32l-18.94,15-19.63-15.74c.31,1.27.23,2.9,1,3.75,6.8,7.5,13.67,14.93,20.75,22.16.74.76,3.53.73,4.38,0,6.72-6.1,13.19-12.45,20.12-19.09l-2-1.6Z" transform="translate(-9.47 -22.21)"/><path class="cls-3" d="M205.79,163c-.16,3.79,4.21,7.47,8.89,7.47,5.23,0,8.81-3.18,8.94-7.92.14-5.13-3.47-9.05-8.38-9.09C210.05,153.42,206,157.48,205.79,163Z" transform="translate(-9.47 -22.21)"/><path class="cls-3" d="M111.12,153.46c-4.65.08-7.62,3.47-7.51,8.55s3.41,8.54,7.86,8.42c5.13-.14,8.35-3.52,8.2-8.62S116,153.37,111.12,153.46Z" transform="translate(-9.47 -22.21)"/><path class="cls-5" d="M37.78,229.22c-2-1-5.2-2.23-6.65-1.36-1.21.72-1.89,3-2.12,5a13.64,13.64,0,0,0-.1,1.5q-.14,24.3-.19,48.58,0,3.81,0,7.61-.06,29.09-.09,58.17c0,.42,0,.83,0,1.24.09,1.23.29,2.47.41,3.7l4.59.85V240.91c1.91.67,3.32,1.06,4.53,1.51a12.29,12.29,0,0,1,1.43.61l10.15,5.17.12-.28,4.65-10.09c-3.56-1.83-7.12-3.67-10.68-5.49Z" transform="translate(-9.47 -22.21)"/><path class="cls-5" d="M152.82,289.21a10.65,10.65,0,0,0-3.89-2.87c-1.61-.78-3.2-1.59-4.8-2.38-7.53-3.75-15-7.62-22.46-11.51-3.18-1.65-6.36-3.31-9.55-4.95l-31-16-13.77,5.67h0l1.8.92q33.71,17.18,67.35,34.46,2.2,1.14,4.36,2.37c4.31,2.47,8.51,5.15,12.79,7.67.06-2,0-4,.12-6,0-.66.1-1.32.19-2a6.89,6.89,0,0,0-1-5.27A1.58,1.58,0,0,1,152.82,289.21Z" transform="translate(-9.47 -22.21)"/><path class="cls-5" d="M199.8,91.79c-4-4.27-8.46-8.16-12.72-12.21l-1.38-.79L184,78.1c-19.47-7.75-42.33-3.2-59.78,7-.57.33-1.12.67-1.67,1q-3.18,2-6.08,4.19a67.29,67.29,0,0,0-7.11,6.23,80.42,80.42,0,0,0-20.58,36.16c-7.5,28-6.36,55.32,6.94,82.17l4-1.92c-11.94-23.64-11.12-48.49-6.12-73.42,1.2-6,5.23-11.69,8.89-16.88,9.16-13,18.9-25.65,33.63-32.95,5.12-2.54,10.63-5.2,16.19-5.83,14.77-1.65,28.7,1.82,41.55,9.46,2.81,1.67,5.84,3,8.77,4.42C201.73,95.76,201.24,93.32,199.8,91.79Z" transform="translate(-9.47 -22.21)"/><path class="cls-5" d="M60.24,177.89c-1.25-.33-2.35-1.35-3.6-1.58-6.38-1.21-12.79-3.16-19.18-3.11a9.39,9.39,0,0,0-4.16.73,3.11,3.11,0,0,0-1.62,1.84,5.41,5.41,0,0,0-.28,1.49c0,.28,0,.57,0,.89a17.18,17.18,0,0,0,.22,2.08q.09.57.21,1.2c11.5-6.21,28.4-2,36.48,9C68.87,184.18,66.79,179.65,60.24,177.89Z" transform="translate(-9.47 -22.21)"/><path class="cls-5" d="M289.69,173.17c-9.77-1.9-17.73,2.53-26.1,5.87a10.25,10.25,0,0,0-3,1.79c-.23.2-.43.41-.63.62a7.1,7.1,0,0,0-1.51,6.1h0c5.25-2.4,10.37-5.12,15.76-7.1,6.61-2.43,13.48-5.25,20.08.3C295.47,176.58,295,174.2,289.69,173.17Z" transform="translate(-9.47 -22.21)"/><path class="cls-5" d="M232.78,234.73a4.79,4.79,0,0,0-1.22-.77c-5.58-2.59-11.31-5.61-17.27-6.44a16.13,16.13,0,0,0-5.11.08c-7,1.27-12.05,7.3-13.19,15.27h0a7.88,7.88,0,0,0,1.86-.84c3-2.39,5.88-4.84,8.81-7.27,2.71-3.47,6.33-3.36,9.85-2,5.05,1.92,9.92,4.27,14.87,6.44h0C234.37,237.87,234.26,236,232.78,234.73Z" transform="translate(-9.47 -22.21)"/><path class="cls-5" d="M117.7,234.2h0L129,240.26c-.52-1.55-.72-3.32-1.62-4.6-7.88-11.11-27.38-10.56-35.31,1.28l4.46,1.86C103,234.3,109.46,230.29,117.7,234.2Z" transform="translate(-9.47 -22.21)"/><path class="cls-5" d="M161.21,151.13a1.33,1.33,0,0,0-.31.18c-3.14,2.53-6.06,5.34-8.88,7.89,3.42,2.25,5.94,4,8.6,5.6a16.13,16.13,0,0,0,3.67,1.11q0-7.46,0-14.9h0C163.3,151.07,162,150.8,161.21,151.13Z" transform="translate(-9.47 -22.21)"/><path class="cls-3" d="M164.31,151q0,7.44,0,14.9c3-1.94,6-3.87,8.36-5.39l-2.29-2.61c-2.06-2.35-4.05-4.63-6.05-6.9Z" transform="translate(-9.47 -22.21)"/><path class="cls-3" d="M164.31,151c2,2.27,4,4.55,6.05,6.9L164.31,151Z" transform="translate(-9.47 -22.21)"/><path class="cls-6" d="M317.73,211c0-.54-.05-1.13-.12-1.73-.27-2.33-1.05-4.91-2.44-5.75,0,0-5.87-3.38-10.31-5.41q.47-.93.9-1.89c7.66-16.85,2.42-28.85,2.42-28.85-4.64-9.57-13.55-11-22.23-10.62-8.48.39-16.84,3.16-25.64,5a114,114,0,0,0-22.07-67.92c-15.43-21.29-36.75-32.72-63.91-36.9,6.67-3.83,12-7,17.4-9.95a7.4,7.4,0,0,0,3.61-9.72c-1-2.49-4.36-4.87-7.14-5.64-6.63-1.86-12.23,1.54-17.45,5.26-2.48,1.77-4.8,3.76-7.45,5.85-.58-4.91-1-9.16-1.62-13.37-.62-4-3.12-7.18-7.08-7.12-3.1,0-7.42,1.32-8.93,3.57A18.06,18.06,0,0,0,143,37.36c.88,6.46,3.34,12.7,5.19,19.22C92.19,69.3,69.77,108.37,65.94,162.51a46.75,46.75,0,0,0-5.18-1.66c-7.35-1.47-14.71-3.8-22.11-4-8.48-.21-17,1.47-21.52,10.49,0,0-3.2,12.3,2.16,24.42,1,2.27,2,4.42,3,6.51-4.38,2-9.94,5.24-9.94,5.24-1.39.84-2.17,3.42-2.44,5.75-.07.6-.11,1.19-.12,1.73q0,9.34-.08,18.69l-.26-.05v43c0,3.52,0,6,0,8.4,0,18,0,36,0,54q0,3.86,0,7.71c0,.22,0,.44,0,.66q0,11.29.12,22.59c0,4.68,1.55,9.36,2.37,14,3,5.9,7.09,10.58,13.22,13.6Q61,411.36,96.58,429.37c16,8.12,31.85,16.37,47.48,25.08,11.33,6.31,22.38,8.92,34.59,2.54q61-31.86,122.16-63.38c5.9-3.05,11.09-6.67,14.17-12.76.74-5.24,2.06-10.49,2.11-15.74.05-5.51.08-11,.12-16.54l.35-.06c.18-1.9.52-3.8.51-5.69Q318,276.91,317.73,211Zm-86.35,28.17-13.77,5.34-15.51,8.53-5.81,3.19c0-.65,0-1.28,0-1.89,0-1.18-.05-2.3-.08-3.39v-.31c-.07-2.76-.12-5.27-.18-7.79,1.14-8,6.21-14,13.19-15.27a16.13,16.13,0,0,1,5.11-.08c6,.83,11.69,3.85,17.27,6.44a4.79,4.79,0,0,1,1.22.77C234.26,236,234.37,237.87,231.38,239.19Zm22.92-35.68q2.05-8,4.12-16a7,7,0,0,1,2.14-6.72,10.25,10.25,0,0,1,3-1.79c8.37-3.34,16.33-7.77,26.1-5.87,5.28,1,5.78,3.41,4.57,7.58A51.31,51.31,0,0,1,293,186c-.34,1.13-.72,2.23-1.14,3.32a46.74,46.74,0,0,1-4.78,9.27.56.56,0,0,0-.05.08,48.4,48.4,0,0,1-5.52,6.81,37.1,37.1,0,0,1-3,3.76c-.43.46-.87.91-1.31,1.35-.11.11-.21.23-.33.34a48.44,48.44,0,0,1-6.46,5.27l-1.66,1.12c-1.27.82-2.56,1.62-3.88,2.38-1.06.62-2.13,1.22-3.21,1.82-3.41,1.87-6.91,3.66-10.31,5.6l-5.58-4.47Zm-222-28.87a3.2,3.2,0,0,1,1-.71,9.39,9.39,0,0,1,4.16-.73c6.39,0,12.8,1.9,19.18,3.11,1.25.23,2.35,1.25,3.6,1.58,6.55,1.76,8.63,6.29,8.07,12.57q1.57,6.51,3.17,13c1.88,4,3.52,8.14,5.71,12,3.79,6.59,3.93,6.51-2,11.91-4-2.45-8.26-4.69-12.35-7.1q-2-1.2-4-2.48c-.67-.43-1.32-.87-2-1.31A48.56,48.56,0,0,1,44.59,205,47.56,47.56,0,0,1,32.7,184.84c-.15-.53-.27-1.07-.41-1.61s-.33-1.19-.46-1.8h0C31.19,178.08,31.17,175.91,32.34,174.64Zm97,81.25-5.13-2.75-14.66-7.85-1-.77a1.08,1.08,0,0,0,0,.19h0l-12-5.91-4.46-1.86c7.93-11.84,27.43-12.39,35.31-1.28.9,1.28,1.1,3.05,1.62,4.6C132,245.21,131.16,250.18,129.38,255.89ZM154.05,405c-.05,1.24-.18,2.47-.25,3.71v27.89l-20.3-10.31C101.74,410.12,70.05,393.86,38.17,378c-7-3.47-11.19-7.57-9.54-15.89.06-.34.12-.68.17-1,.31-2.42.15-4.94.26-7.41-.12-1.23-.32-2.47-.41-3.7,0-.41,0-.82,0-1.24q0-29.08.09-58.17,0-3.79,0-7.61.08-24.29.19-48.58a13.64,13.64,0,0,1,.1-1.5c.23-2,.91-4.26,2.12-5,1.45-.87,4.62.32,6.65,1.36l6.07,3.12c3.56,1.82,7.12,3.66,10.68,5.49l-4.65,10.09-.12.28-1,2.17-.25.55,12.76,22-6.38,26,9.46,36V301.46L74.65,279l-7.2-21.45-.13-.4h0l13.77-5.67,31,16c3.19,1.64,6.37,3.3,9.55,4.95,7.46,3.89,14.93,7.76,22.46,11.51,1.6.79,3.19,1.6,4.8,2.38a10.65,10.65,0,0,1,3.89,2.87,1.58,1.58,0,0,0,.12.15,6.89,6.89,0,0,1,1,5.27c-.09.65-.15,1.31-.19,2-.12,2-.06,4-.12,6,.1,9.79.27,19.59.3,29.38q.12,35.88.13,71.76Q154.08,404.35,154.05,405Zm-8.28-145a40.1,40.1,0,0,0-4.84-33.31,46.58,46.58,0,0,0-6.43-6.44c-9.75-7.94-21.43-10.06-34.75-7.18l-4,1.92c-13.3-26.85-14.44-54.21-6.94-82.17a80.42,80.42,0,0,1,20.58-36.16,67.29,67.29,0,0,1,7.11-6.23q2.89-2.2,6.08-4.19C140.2,75.2,163.92,70.1,184,78.1l1.69.69,1.38.79c9.27,1.38,16.55,6.72,23.31,12.53,20.57,17.68,30.55,40.5,31.39,67.42.54,17.42-1.2,34.48-9.2,50.36-.74,1.47-1.62,2.86-2.57,4.52-14.54-5.66-28-3.53-39.44,6.66s-12.71,24.19-10.74,38.79C168.38,263.18,157.34,262.09,145.77,259.91ZM289.46,377.12c-19.38,9.22-38.27,19.45-57.36,29.27q-28.2,14.49-56.41,28.94c-.7.36-1.47.6-3,1.21V407.76q0-57,0-114a27.67,27.67,0,0,1,.68-4.27.47.47,0,0,1,.38-.4l.24-.21h0l.47-.41.06,0,.28-.18,1.69-.81,8.38-4.37,17.76-9.24L221,264.26l59.08-30.64,6.38-3.3,10.07-1.89-10.07,1.89c2.65-4.24,6.2-4.9,10.07-1.89l.12.14c.31,1.56.82,3.11,1,4.67a10,10,0,0,1,.12,1.44q0,22,0,44.05,0,4.39,0,8.8c0,25.36-.05,50.73.11,76.09C298,370.56,295.93,374,289.46,377.12Z" transform="translate(-9.47 -22.21)"/><path class="cls-6" d="M22.89,129.45c6.07,1.19,12.19,2.14,18.29,3.2,6.69.22,10.17-2,10.59-7.14.46-5.78-2.92-8.73-9.63-9.28a132.63,132.63,0,0,1-15.57-2.45c-4.65-.94-10.44,1.24-11.36,4.67C14,122.84,17.82,128.46,22.89,129.45Z" transform="translate(-9.47 -22.21)"/><path class="cls-6" d="M274.65,124c0,4.06,4.16,8.79,7.62,8.38,7.51-.88,15-1.86,22.48-3a8,8,0,0,0,7-9.21c-.69-4.11-4.42-6.53-9.29-6-6.86.76-13.72,1.55-20.58,2.33C278.12,116.88,274.63,120.53,274.65,124Z" transform="translate(-9.47 -22.21)"/><path class="cls-6" d="M65.59,85.89c2.73,2.31,6.39,1.16,9-1.52s2.91-6.22.44-9A128.56,128.56,0,0,0,60.64,61c-1.73-1.42-5.68-1.23-8.11-.36-1.85.66-2.9,3.56-4,5.08.6,2.26.54,3.8,1.29,4.58C54.93,75.61,60,81.12,65.59,85.89Z" transform="translate(-9.47 -22.21)"/><path class="cls-6" d="M259.12,86.45c6-5.26,12.38-10.37,17.36-16.55,3.19-4-1.42-10.63-6.87-10.67-.57.11-1.89-.07-2.48.5-5.62,5.48-11.48,10.79-16.39,16.85-1.23,1.52.1,5.87,1.3,8.42A4.33,4.33,0,0,0,259.12,86.45Z" transform="translate(-9.47 -22.21)"/><path class="cls-6" d="M182.41,167.06a8.68,8.68,0,0,1,1-1.76l.3-.44c.31-.44.62-.88.91-1.33a8.92,8.92,0,0,0,.75-1.34,4.31,4.31,0,0,0,.34-1.2,3.24,3.24,0,0,0-.07-1.27,5.08,5.08,0,0,0-1.2-2.1c-4.71-5.35-9.45-10.7-14.58-15.64-3.8-3.66-8.59-4-12.56-.54-4.75,4.14-8.78,9.12-13.14,13.71-3.51,3.7-3.68,7.49-.38,11.4l19.63,15.74,18.94-15C182.34,167.23,182.38,167.15,182.41,167.06Zm-18.12-1.15a16.13,16.13,0,0,1-3.67-1.11c-2.66-1.56-5.18-3.35-8.6-5.6,2.82-2.55,5.74-5.36,8.88-7.89a1.33,1.33,0,0,1,.31-.18c.8-.33,2.09-.06,3.1-.13l6.05,6.91,2.29,2.61C170.28,162,167.28,164,164.29,165.91Z" transform="translate(-9.47 -22.21)"/><path class="cls-6" d="M123.73,133.2c-5.46,0-9.29,4.23-9.2,10.13s4.72,11,10.08,10.88c5.8-.14,10.16-5.24,9.9-11.58C134.28,137.2,129.69,133.19,123.73,133.2Z" transform="translate(-9.47 -22.21)"/><path class="cls-6" d="M200.89,154c5.3.2,10.05-4.82,10.14-10.72s-3.61-9.79-9.36-9.79-9.71,3.67-9.85,9.43C191.67,148.93,195.67,153.81,200.89,154Z" transform="translate(-9.47 -22.21)"/></g></g></g></svg>