<svg xmlns="http://www.w3.org/2000/svg" viewBox="0 0 443.14 549.3"><defs><style>.cls-1{fill:none;}.cls-2{fill:#ed943b;}.cls-3{fill:#ffc622;}.cls-4{fill:#fcebbb;}.cls-5{fill:#603405;}</style></defs><g id="Camada_2" data-name="Camada 2"><g id="Camada_1-2" data-name="Camada 1"><path class="cls-1" d="M254,228.75v0Z"/><path class="cls-1" d="M241.47,142.64l-.3.45Z"/><path class="cls-1" d="M245.75,149.53l-5.64-4.42c0-.09.07-.18.1-.27,0,.09-.08.18-.1.27Z"/><path class="cls-1" d="M228.16,135.7l2.28,2.6Z"/><path class="cls-1" d="M243.47,138.78a3.29,3.29,0,0,0-.07-1.28A3.29,3.29,0,0,1,243.47,138.78Z"/><path class="cls-1" d="M243.13,140a9.44,9.44,0,0,1-.75,1.34A9.44,9.44,0,0,0,243.13,140Z"/><path class="cls-1" d="M157.55,190.76l-4,1.92,4-1.92c13.32-2.87,25-.76,34.75,7.18C182.55,190,170.87,187.89,157.55,190.76Z"/><path class="cls-1" d="M336.28,187c-.43.47-.87.91-1.31,1.36C335.41,187.88,335.85,187.44,336.28,187Z"/><path class="cls-1" d="M260.45,75.57c1.06.86,2.2,1.64,3.23,2.54-1-.9-2.17-1.68-3.22-2.54-2.93-1.46-6-2.75-8.77-4.42C254.49,72.82,257.53,74.11,260.45,75.57Z"/><path class="cls-1" d="M334.64,188.67a50.05,50.05,0,0,1-6.46,5.27A50.05,50.05,0,0,0,334.64,188.67Z"/><path class="cls-1" d="M264.46,212.54l11,9.78-15.51,8.52,15.51-8.52h0Z"/><path class="cls-1" d="M120.59,198.05c-1.36-.8-2.71-1.62-4-2.48C117.88,196.43,119.23,197.25,120.59,198.05Z"/><path class="cls-1" d="M198.66,272.71c4.31,2.46,8.51,5.14,12.79,7.67.1,9.79.27,19.58.3,29.37,0-9.79-.2-19.58-.3-29.38.06-2,0-4,.12-6-.12,2-.06,4-.12,6C207.17,277.85,203,275.17,198.66,272.71Z"/><path class="cls-1" d="M86.45,327.72c.09,1.24.29,2.47.4,3.71h0C86.74,330.19,86.54,329,86.45,327.72Z"/><path class="cls-1" d="M326.52,195.05c-1.27.83-2.56,1.62-3.88,2.39C324,196.67,325.25,195.88,326.52,195.05Z"/><path class="cls-1" d="M231.14,267.32a.45.45,0,0,1,.37-.4l.24-.22h0l-.24.21a.49.49,0,0,0-.38.41,26.16,26.16,0,0,0-.68,4.27,25.15,25.15,0,0,1,.69-4.27Z"/><path class="cls-1" d="M166.32,222.5h0l-12-5.91Z"/><path class="cls-1" d="M89.63,159.22c.13.61.3,1.2.46,1.8-.16-.6-.33-1.19-.46-1.8Z"/><path class="cls-1" d="M102.39,182.81A47.56,47.56,0,0,1,90.5,162.62a47.56,47.56,0,0,0,11.89,20.19,48.38,48.38,0,0,0,12.18,11.45A48.38,48.38,0,0,1,102.39,182.81Z"/><path class="cls-1" d="M344.84,176.32s0,.06,0,.09S344.83,176.35,344.84,176.32Z"/><path class="cls-1" d="M168.13,218.06a8.93,8.93,0,0,0-1,1.65A8.93,8.93,0,0,1,168.13,218.06Z"/><path class="cls-2" d="M342.37,225.35a151.72,151.72,0,0,1-24.2,9.93l-23.8,12.31c-11.35,5.87-22.68,11.78-34,17.64-9.26,4.79-18.55,9.53-28.57,14.66-.1-2.13-.21-4.24-.31-6.33s-.21-4.17-.31-6.24a25.15,25.15,0,0,0-.69,4.27q0,57,0,114v28.79c1.56-.62,2.33-.85,3-1.21q28.22-14.46,56.41-28.95c19.09-9.81,38-20,57.36-29.26,6.47-3.08,8.5-6.57,8.46-13.51-.16-25.36-.14-50.72-.11-76.09-4.11-12-7.65-24.68-8.32-40.4C345.25,224.92,343.34,224.85,342.37,225.35Z"/><path class="cls-2" d="M342.37,225.35c1-.5,2.88-.43,4.92-.44-.06-1.49-.1-3-.11-4.55q-14.52,7.42-29,14.92A151.72,151.72,0,0,0,342.37,225.35Z"/><path class="cls-2" d="M347.29,224.91c.67,15.72,4.21,28.4,8.32,40.4q0-4.4,0-8.8a141.64,141.64,0,0,1-3.56-32.19A15.61,15.61,0,0,1,347.29,224.91Z"/><path class="cls-2" d="M354.53,212.35c.24,3.36-1.57,5.05-4.37,6.47l-3,1.54c0,1.54.05,3.06.11,4.55a15.61,15.61,0,0,0,4.77-.59,141.64,141.64,0,0,0,3.56,32.19q0-22,0-44a10,10,0,0,0-.12-1.44l-1,0C354.49,211.49,354.5,211.92,354.53,212.35Z"/><path class="cls-2" d="M354.48,211.06l1,0c-.22-1.55-.73-3.11-1-4.66C354.5,207.93,354.44,209.5,354.48,211.06Z"/><path class="cls-2" d="M248.37,198.85c11.45-10.19,24.9-12.32,39.44-6.66.95-1.65,1.83-3.05,2.57-4.52,8-15.88,9.74-32.94,9.2-50.36-.84-26.91-10.82-49.73-31.39-67.41-6.76-5.82-14-11.16-23.31-12.53,4.26,4,8.69,7.94,12.72,12.21,1.44,1.53,1.93,4,2.86,6,1.05.86,2.19,1.64,3.22,2.54a10.65,10.65,0,0,1,1,.93,78.9,78.9,0,0,1,19.61,38.62c2,9.71,2.32,19.39-2.17,28.71-7,14.47-19,24.17-31.49,33.31-15.69,11.49-32.82,20.16-51.87,24.7a40.13,40.13,0,0,1,4.84,33.32c11.57,2.18,22.61,3.26,34.06-.06C235.66,223,236.8,209.15,248.37,198.85Z"/><path class="cls-2" d="M211.6,386.45c-8.66,3.61-16.44,1.94-23.62-3.81a25.56,25.56,0,0,0-4.39-2.34q-44.11-22.56-88.22-45.14a29.87,29.87,0,0,1-3.92-2.88l-4.6-.85h0c-.1,2.47.06,5-.25,7.41,0,.34-.11.69-.17,1C84.78,348.19,89,352.28,96,355.76c31.88,15.88,63.57,32.15,95.33,48.28l20.3,10.3V386.46Z"/><path class="cls-2" d="M211.6,386.46v0h0Z"/><path class="cls-2" d="M86.85,331.43c-.1,2.47.06,5-.25,7.41.31-2.43.15-4.94.25-7.41Z"/><path class="cls-2" d="M129.27,181.27c-6.7-3.84-13.37-7.74-20.14-11.48-1-.54-2.77-.85-3.52-.32a3.69,3.69,0,0,0-1,3.41c1.54,3.94.46,7.07-2.26,9.93a48.38,48.38,0,0,0,12.18,11.45c.66.45,1.31.89,2,1.31,1.33.86,2.68,1.68,4,2.48,4.09,2.42,8.3,4.66,12.35,7.11,6-5.41,5.84-5.33,2.05-11.92C132.8,189.42,131.16,185.27,129.27,181.27Z"/><path class="cls-2" d="M319.43,199.25c1.08-.59,2.15-1.2,3.21-1.81,1.32-.77,2.61-1.56,3.88-2.39.56-.36,1.11-.73,1.66-1.11a50.05,50.05,0,0,0,6.46-5.27c.12-.11.22-.23.33-.34.44-.45.88-.89,1.31-1.36a37.25,37.25,0,0,0,3-3.75h0c-5.49-3.57-.42-9.53-2.84-14.48a87,87,0,0,1-7.5,4.72c-5.55,2.74-11.22,5.24-16.83,7.83l-8.56,19.1,5.58,4.46C312.52,202.92,316,201.13,319.43,199.25Z"/><path class="cls-2" d="M339.27,183.22a37.25,37.25,0,0,1-3,3.75,38.41,38.41,0,0,0,3-3.75Z"/><path class="cls-2" d="M335,188.33c-.11.11-.21.23-.33.34C334.76,188.56,334.86,188.44,335,188.33Z"/><path class="cls-2" d="M328.18,193.94c-.55.38-1.1.75-1.66,1.11C327.08,194.69,327.63,194.32,328.18,193.94Z"/><path class="cls-2" d="M322.64,197.44c-1.06.61-2.13,1.22-3.21,1.81C320.51,198.66,321.58,198.05,322.64,197.44Z"/><path class="cls-2" d="M175.5,212c-2.43,2-5.45,3.57-7.37,6.07a8.67,8.67,0,0,0-1.78,4.24l1,.78,14.66,7.85,5.13,2.74C189,228,189.77,223,186.81,218Z"/><path class="cls-2" d="M166.35,222.3h0l1,.78,14.66,7.85-14.66-7.85Z"/><path class="cls-2" d="M264.46,212.54c-2.93,2.43-5.85,4.89-8.81,7.28a8.3,8.3,0,0,1-1.86.84h0c.06,2.52.11,5,.18,7.79v.3c0,1.09.05,2.21.08,3.39,0,.62,0,1.25,0,1.9l5.81-3.2,15.51-8.52Z"/><path class="cls-2" d="M253.79,220.66h0c.06,2.51.11,5,.18,7.79-.07-2.76-.12-5.27-.18-7.79Z"/><path class="cls-2" d="M254.05,232.14c0-1.18-.05-2.3-.08-3.39C254,229.84,254,231,254.05,232.14Z"/><path class="cls-3" d="M211.45,280.38c-4.28-2.53-8.48-5.21-12.79-7.67-1.44-.82-2.89-1.62-4.36-2.37Q160.67,253,127,235.87l-1.8-.91h0l.13.4,7.2,21.45-10.3,22.43v33.43l-9.46-36,6.38-26-12.76-22,.25-.55,1-2.16-10.14-5.17A12.32,12.32,0,0,0,96,220.2c-1.21-.44-2.62-.84-4.53-1.5V332.28a29.87,29.87,0,0,0,3.92,2.88q44.09,22.62,88.22,45.14a25.56,25.56,0,0,1,4.39,2.34c7.18,5.75,15,7.42,23.62,3.81.07-1.23.2-2.47.25-3.7,0-.41,0-.83,0-1.24q0-35.88-.13-71.76C211.72,300,211.55,290.17,211.45,280.38Z"/><path class="cls-3" d="M192.3,197.94a47.14,47.14,0,0,1,6.43,6.44c19.05-4.54,36.18-13.21,51.87-24.7,12.49-9.14,24.52-18.84,31.49-33.31,4.49-9.32,4.19-19,2.17-28.71A78.9,78.9,0,0,0,264.65,79a10.65,10.65,0,0,0-1-.93c-1-.9-2.17-1.68-3.23-2.54-2.92-1.46-6-2.75-8.76-4.42C238.84,63.5,224.91,60,210.14,61.69c-5.56.62-11.07,3.28-16.2,5.82-14.72,7.3-24.46,20-33.63,33-3.65,5.18-7.68,10.88-8.88,16.87-5,24.93-5.82,49.78,6.12,73.42C170.87,187.89,182.55,190,192.3,197.94Zm89.12-57.6c-.13,4.75-3.71,7.92-8.94,7.92-4.68,0-9.05-3.68-8.89-7.47.25-5.52,4.26-9.58,9.45-9.54C278,131.29,281.56,135.22,281.42,140.34Zm-21.95-29.06c5.75,0,9.44,3.87,9.35,9.79S264,132,258.69,131.79s-9.22-5.08-9.07-11.07C249.76,115,253.6,111.28,259.47,111.28Zm-57.55,21.66c4.36-4.6,8.39-9.57,13.14-13.71,4-3.45,8.76-3.13,12.56.54,5.13,4.93,9.87,10.29,14.58,15.63a5.14,5.14,0,0,1,1.2,2.1,3.29,3.29,0,0,1,.07,1.28,4.31,4.31,0,0,1-.34,1.2,9.44,9.44,0,0,1-.75,1.34c-.29.44-.6.88-.91,1.32l-.3.45a8.61,8.61,0,0,0-1,1.75c0,.09-.08.18-.1.27l5.64,4.42,2,1.6c-6.93,6.63-13.4,13-20.12,19.08-.85.77-3.64.79-4.38,0-7.08-7.22-13.95-14.65-20.75-22.15-.77-.85-.69-2.48-1-3.75C198.24,140.42,198.41,136.64,201.92,132.94Zm-20.39-22c6,0,10.55,4,10.77,9.42.27,6.35-4.09,11.45-9.89,11.58-5.36.13-10-4.87-10.08-10.88S176.07,111,181.53,111Zm-12.61,20.25c4.92-.09,8.41,3.32,8.55,8.35s-3.07,8.48-8.2,8.62c-4.45.12-7.74-3.41-7.86-8.42S164.27,131.33,168.92,131.24Z"/><path class="cls-3" d="M354.48,211.06c0-1.56,0-3.13,0-4.7l-.12-.15L344.3,208.1l-6.38,3.31Q308.39,226.73,278.84,242l-18.45,9.61-17.76,9.25-8.38,4.36-1.69.82-.28.17-.06.05-.47.4-.24.22a.45.45,0,0,0-.37.4h0q.15,3.1.31,6.24c.1,2.09.21,4.2.31,6.33,10-5.13,19.31-9.87,28.57-14.66,11.36-5.86,22.69-11.77,34-17.64l23.8-12.31q14.49-7.49,29-14.92l3-1.54c2.8-1.42,4.61-3.11,4.37-6.47C354.5,211.92,354.49,211.49,354.48,211.06Z"/><path class="cls-3" d="M336.43,168.74c2.42,4.95-2.65,10.91,2.84,14.48a49.11,49.11,0,0,0,4.27-5c.43-.58.85-1.18,1.25-1.77,0,0,0-.06,0-.09a46.93,46.93,0,0,0,4.78-9.26q.63-1.63,1.14-3.33a51.8,51.8,0,0,0,1.3-5.19c-6.6-5.56-13.47-2.73-20.08-.3-5.39,2-10.52,4.7-15.76,7.09h0q-2.06,8-4.12,16c5.61-2.59,11.28-5.09,16.83-7.83A87,87,0,0,0,336.43,168.74Z"/><path class="cls-3" d="M104.65,172.88a3.69,3.69,0,0,1,1-3.41c.75-.53,2.53-.22,3.52.32,6.77,3.74,13.44,7.64,20.14,11.48q-1.58-6.51-3.17-13c-8.07-11.05-25-15.24-36.47-9h0c.13.61.3,1.2.46,1.8s.26,1.08.41,1.6a47.56,47.56,0,0,0,11.89,20.19C105.11,180,106.19,176.82,104.65,172.88Z"/><path class="cls-3" d="M264.46,212.54l11,9.78h0L289.18,217h0c-4.95-2.17-9.82-4.53-14.87-6.45C270.79,209.19,267.17,209.07,264.46,212.54Z"/><path class="cls-3" d="M154.34,216.59l12,5.91h0a1.38,1.38,0,0,1,0-.2h0a8.67,8.67,0,0,1,1.78-4.24,9.27,9.27,0,0,1,.77-.89l.06-.07c1.89-2,4.44-3.34,6.54-5.11h0C167.26,208.08,160.75,212.09,154.34,216.59Z"/><path class="cls-2" d="M344.3,208.1l10.07-1.89C350.5,203.2,347,203.87,344.3,208.1Z"/><path class="cls-2" d="M240.11,145.11l-18.94,15-19.63-15.74c.31,1.27.23,2.9,1,3.75,6.8,7.5,13.67,14.93,20.75,22.15.74.76,3.53.74,4.38,0,6.72-6.09,13.19-12.45,20.12-19.08l-2-1.6Z"/><path class="cls-2" d="M263.59,140.79c-.16,3.79,4.21,7.47,8.89,7.47,5.23,0,8.81-3.17,8.94-7.92.14-5.12-3.47-9.05-8.38-9.09C267.85,131.21,263.84,135.27,263.59,140.79Z"/><path class="cls-2" d="M168.92,131.24c-4.65.09-7.62,3.47-7.51,8.55s3.41,8.54,7.86,8.42c5.13-.14,8.35-3.51,8.2-8.62S173.84,131.15,168.92,131.24Z"/><path class="cls-4" d="M95.58,207c-2-1-5.2-2.24-6.65-1.37-1.21.73-1.89,3-2.12,5a13.32,13.32,0,0,0-.1,1.5q-.13,24.28-.19,48.58,0,3.8,0,7.61-.06,29.08-.09,58.17c0,.41,0,.82,0,1.23.09,1.24.29,2.47.4,3.71l4.6.85V218.7c1.91.66,3.32,1.06,4.53,1.5a12.32,12.32,0,0,1,1.43.62L107.55,226l.13-.28,4.65-10.1-10.68-5.49C99.62,209.09,97.61,208,95.58,207Z"/><path class="cls-4" d="M210.62,267a10.78,10.78,0,0,0-3.89-2.88c-1.61-.78-3.2-1.58-4.8-2.38-7.53-3.74-15-7.61-22.46-11.5l-9.55-5-31-16L125.16,235h0l1.8.91q33.7,17.19,67.35,34.47c1.47.75,2.92,1.55,4.36,2.37,4.31,2.46,8.51,5.14,12.79,7.66.06-2,0-4,.12-6,0-.66.1-1.32.19-2a6.81,6.81,0,0,0-1-5.26Z"/><path class="cls-4" d="M257.6,69.58c-4-4.27-8.46-8.17-12.72-12.21l-1.38-.8-1.69-.69c-19.47-7.74-42.33-3.2-59.78,7-.57.33-1.12.67-1.67,1-2.12,1.31-4.15,2.71-6.08,4.18a68.44,68.44,0,0,0-7.11,6.23,80.52,80.52,0,0,0-20.58,36.16c-7.5,28-6.36,55.32,6.94,82.17l4-1.92c-11.94-23.64-11.12-48.49-6.12-73.42,1.2-6,5.23-11.69,8.88-16.87,9.17-13,18.91-25.66,33.63-33,5.13-2.54,10.64-5.2,16.2-5.82,14.77-1.66,28.7,1.81,41.55,9.46,2.8,1.67,5.84,3,8.77,4.42C259.53,73.54,259,71.11,257.6,69.58Z"/><path class="cls-4" d="M118,155.68c-1.25-.34-2.35-1.35-3.6-1.59-6.38-1.21-12.79-3.15-19.18-3.11a9.54,9.54,0,0,0-4.16.73,3.23,3.23,0,0,0-1,.72,3.31,3.31,0,0,0-.67,1.12A5.91,5.91,0,0,0,89.2,155c0,.28,0,.58,0,.89a17.33,17.33,0,0,0,.22,2.09q.09.57.21,1.2c11.5-6.22,28.4-2,36.47,9C126.67,162,124.59,157.43,118,155.68Z"/><path class="cls-4" d="M347.49,151c-9.78-1.91-17.73,2.52-26.1,5.87a10.25,10.25,0,0,0-3,1.79,6.15,6.15,0,0,0-.63.62,7.08,7.08,0,0,0-1.51,6.09h0c5.24-2.39,10.37-5.11,15.76-7.09,6.61-2.43,13.48-5.26,20.08.3C353.27,154.36,352.77,152,347.49,151Z"/><path class="cls-4" d="M290.58,212.51a5.41,5.41,0,0,0-1.22-.77c-5.58-2.58-11.31-5.61-17.27-6.43a15.84,15.84,0,0,0-5.11.08c-7,1.26-12.05,7.29-13.19,15.27h0a8.3,8.3,0,0,0,1.86-.84c3-2.39,5.88-4.85,8.81-7.28,2.71-3.47,6.33-3.35,9.85-2,5.05,1.92,9.92,4.28,14.87,6.45h0C292.17,215.66,292.06,213.78,290.58,212.51Z"/><path class="cls-4" d="M175.5,212h0l11.31,6c-.52-1.54-.72-3.32-1.62-4.59-7.88-11.12-27.38-10.56-35.31,1.27l4.46,1.87C160.75,212.09,167.26,208.08,175.5,212Z"/><path class="cls-4" d="M219,128.91a1.08,1.08,0,0,0-.31.19c-3.15,2.52-6.06,5.33-8.88,7.88,3.42,2.26,5.94,4.05,8.6,5.6a15.65,15.65,0,0,0,3.67,1.11q0-7.45,0-14.9h0C221.1,128.86,219.81,128.58,219,128.91Z"/><path class="cls-2" d="M222.11,128.79q0,7.44,0,14.9l8.35-5.39-2.28-2.6-6-6.91Z"/><path class="cls-2" d="M222.11,128.79l6,6.91-6-6.91Z"/><path class="cls-5" d="M375.53,188.8c0-.53,0-1.12-.12-1.72-.27-2.34-1.05-4.92-2.44-5.75,0,0-5.87-3.39-10.31-5.41q.46-.94.9-1.89c7.66-16.85,2.42-28.85,2.42-28.85-4.64-9.58-13.55-11-22.23-10.63-8.48.4-16.84,3.16-25.64,5A113.94,113.94,0,0,0,296,71.6c-15.43-21.29-36.75-32.73-63.91-36.91,6.67-3.83,12-7,17.4-9.94A7.4,7.4,0,0,0,253.14,15c-1-2.49-4.36-4.87-7.14-5.65-6.63-1.85-12.23,1.55-17.45,5.26-2.48,1.77-4.8,3.76-7.45,5.85-.58-4.9-1-9.15-1.62-13.36-.62-4-3.12-7.19-7.09-7.13-3.09,0-7.41,1.32-8.92,3.57a18.08,18.08,0,0,0-2.72,11.58c.88,6.45,3.34,12.69,5.19,19.21-55.95,12.72-78.37,51.8-82.2,105.93a49,49,0,0,0-5.18-1.66c-7.35-1.47-14.71-3.79-22.11-4-8.48-.2-17,1.48-21.52,10.5,0,0-3.2,12.29,2.16,24.41,1,2.28,2,4.43,3,6.52-4.38,2-9.94,5.24-9.94,5.24-1.39.83-2.17,3.41-2.44,5.75-.07.6-.11,1.19-.12,1.72q0,9.36-.08,18.7l-.26-.05v43c0,3.52,0,6,0,8.41,0,18,0,36,0,54q0,3.86,0,7.71c0,.22,0,.44,0,.66q0,11.3.12,22.59c0,4.69,1.55,9.36,2.37,14,3,5.91,7.09,10.58,13.22,13.61q35.77,17.64,71.37,35.67c16,8.12,31.85,16.37,47.48,25.08,11.33,6.31,22.38,8.91,34.59,2.53q61-31.84,122.16-63.37c5.9-3,11.09-6.68,14.17-12.76.74-5.25,2.06-10.49,2.11-15.75.05-5.51.08-11,.12-16.53l.35-.07c.18-1.89.52-3.79.51-5.69Q375.78,254.71,375.53,188.8ZM289.18,217l-13.77,5.34-15.51,8.52-5.81,3.2c0-.65,0-1.28,0-1.9,0-1.18-.05-2.3-.08-3.39v-.3c-.07-2.76-.12-5.28-.18-7.79,1.14-8,6.21-14,13.19-15.27a15.84,15.84,0,0,1,5.11-.08c6,.82,11.69,3.85,17.27,6.43a5.41,5.41,0,0,1,1.22.77C292.06,213.78,292.17,215.66,289.18,217Zm22.92-35.69q2.06-8,4.12-16a6.94,6.94,0,0,1,2.14-6.71,10.25,10.25,0,0,1,3-1.79c8.37-3.35,16.32-7.78,26.1-5.87,5.28,1,5.78,3.4,4.57,7.58a51.8,51.8,0,0,1-1.3,5.19q-.51,1.7-1.14,3.33a46.93,46.93,0,0,1-4.78,9.26s0,.06,0,.09a49,49,0,0,1-5.52,6.81,38.41,38.41,0,0,1-3,3.75c-.43.47-.87.91-1.31,1.36-.11.11-.21.23-.33.34a50.05,50.05,0,0,1-6.46,5.27c-.55.38-1.1.75-1.66,1.11-1.27.83-2.56,1.62-3.88,2.39-1.06.61-2.13,1.22-3.21,1.81-3.41,1.88-6.91,3.67-10.31,5.6l-5.58-4.46Zm-222-28.86a3.23,3.23,0,0,1,1-.72,9.54,9.54,0,0,1,4.16-.73c6.39,0,12.8,1.9,19.18,3.11,1.25.24,2.35,1.25,3.6,1.59,6.55,1.75,8.63,6.29,8.06,12.56q1.59,6.51,3.17,13c1.89,4,3.53,8.15,5.72,12,3.79,6.59,3.93,6.51-2.05,11.92-4.05-2.45-8.26-4.69-12.35-7.11-1.36-.8-2.71-1.62-4-2.48-.67-.42-1.32-.86-2-1.31a48.38,48.38,0,0,1-12.18-11.45A47.56,47.56,0,0,1,90.5,162.62c-.15-.52-.27-1.07-.41-1.6s-.33-1.19-.46-1.8h0C89,155.87,89,153.69,90.14,152.43Zm97,81.24-5.13-2.74-14.66-7.85-1-.78a1.38,1.38,0,0,0,0,.2h0l-12-5.91-4.46-1.87c7.93-11.83,27.43-12.39,35.31-1.27.9,1.27,1.1,3.05,1.62,4.59C189.77,223,189,228,187.18,233.67Zm24.67,149.08c0,1.23-.18,2.47-.25,3.7v27.89L191.3,404c-31.76-16.13-63.45-32.4-95.33-48.28-7-3.48-11.19-7.57-9.54-15.89.06-.34.12-.69.17-1,.31-2.43.15-4.94.25-7.41-.11-1.24-.31-2.47-.4-3.71,0-.41,0-.82,0-1.23q0-29.08.09-58.17,0-3.81,0-7.61.08-24.3.19-48.58a13.32,13.32,0,0,1,.1-1.5c.23-2,.91-4.26,2.12-5,1.45-.87,4.62.33,6.65,1.37s4,2.08,6.07,3.11l10.68,5.49-4.65,10.1-.13.28-1,2.16-.25.55,12.76,22-6.38,26,9.46,36V279.25l10.3-22.43-7.2-21.45-.13-.4h0l13.77-5.66,31,16,9.55,5c7.46,3.89,14.93,7.76,22.46,11.5,1.6.8,3.19,1.6,4.8,2.38a10.78,10.78,0,0,1,3.89,2.88l.11.15a6.81,6.81,0,0,1,1,5.26c-.09.66-.15,1.32-.19,2-.12,2-.06,4-.12,6,.1,9.8.27,19.59.3,29.38q.12,35.88.13,71.76C211.88,381.92,211.87,382.34,211.85,382.75Zm-8.28-145a40.13,40.13,0,0,0-4.84-33.32,47.14,47.14,0,0,0-6.43-6.44c-9.75-7.94-21.43-10.05-34.75-7.18l-4,1.92c-13.3-26.85-14.44-54.2-6.94-82.17a80.52,80.52,0,0,1,20.58-36.16,68.44,68.44,0,0,1,7.11-6.23c1.93-1.47,4-2.87,6.08-4.18,17.64-10.95,41.36-16,61.45-8.06l1.69.69,1.38.8c9.27,1.37,16.55,6.71,23.31,12.53,20.57,17.68,30.55,40.5,31.39,67.41.54,17.42-1.2,34.48-9.2,50.36-.74,1.47-1.62,2.87-2.57,4.52-14.54-5.66-28-3.53-39.44,6.66S235.66,223,237.63,237.64C226.18,241,215.14,239.88,203.57,237.7ZM347.26,354.91c-19.38,9.22-38.27,19.45-57.36,29.26q-28.2,14.5-56.41,28.95c-.7.36-1.47.59-3,1.21V385.54q0-57,0-114a26.16,26.16,0,0,1,.68-4.27.49.49,0,0,1,.38-.41l.24-.21h0l.47-.4.06-.05.28-.17,1.69-.82,8.38-4.36,17.76-9.25L278.84,242q29.54-15.33,59.08-30.63l6.38-3.31,10.07-1.89L344.3,208.1c2.65-4.23,6.2-4.9,10.07-1.89l.12.15c.31,1.55.82,3.11,1,4.66a10,10,0,0,1,.12,1.44q0,22,0,44,0,4.41,0,8.8c0,25.37-.05,50.73.11,76.09C355.76,348.34,353.73,351.83,347.26,354.91Z"/><path class="cls-5" d="M80.69,107.24c6.07,1.19,12.19,2.14,18.29,3.19,6.69.22,10.17-2,10.59-7.13.46-5.78-2.92-8.74-9.63-9.28a132.63,132.63,0,0,1-15.57-2.45c-4.65-.95-10.44,1.24-11.36,4.66C71.83,100.62,75.62,106.24,80.69,107.24Z"/><path class="cls-5" d="M332.45,101.76c0,4.06,4.16,8.79,7.62,8.39,7.51-.89,15-1.86,22.48-3,4.83-.77,7.72-4.84,7-9.22-.69-4.11-4.42-6.52-9.29-6l-20.58,2.34C335.92,94.67,332.43,98.31,332.45,101.76Z"/><path class="cls-5" d="M123.39,63.67c2.73,2.32,6.39,1.17,9-1.52s2.91-6.22.44-9a129.41,129.41,0,0,0-14.37-14.4c-1.73-1.42-5.68-1.22-8.11-.35-1.85.66-2.9,3.55-4,5.07.6,2.26.54,3.81,1.29,4.58C112.73,53.4,117.75,58.9,123.39,63.67Z"/><path class="cls-5" d="M316.92,64.24c6-5.26,12.38-10.38,17.36-16.55,3.19-3.95-1.42-10.64-6.87-10.67-.57.1-1.89-.07-2.48.5C319.31,43,313.45,48.3,308.54,54.37c-1.23,1.52.1,5.86,1.3,8.41A4.33,4.33,0,0,0,316.92,64.24Z"/><path class="cls-5" d="M240.21,144.84a8.61,8.61,0,0,1,1-1.75l.3-.45c.31-.44.62-.88.91-1.32a9.44,9.44,0,0,0,.75-1.34,4.31,4.31,0,0,0,.34-1.2,3.29,3.29,0,0,0-.07-1.28,5.14,5.14,0,0,0-1.2-2.1c-4.71-5.34-9.45-10.7-14.58-15.63-3.8-3.67-8.59-4-12.56-.54-4.75,4.14-8.78,9.11-13.14,13.71-3.51,3.7-3.68,7.48-.38,11.4l19.63,15.74,18.94-15C240.13,145,240.18,144.93,240.21,144.84Zm-18.12-1.15a15.65,15.65,0,0,1-3.67-1.11c-2.66-1.55-5.18-3.34-8.6-5.6,2.82-2.55,5.73-5.36,8.88-7.88a1.08,1.08,0,0,1,.31-.19c.8-.33,2.09,0,3.1-.12l6,6.91,2.28,2.6Z"/><path class="cls-5" d="M181.53,111c-5.46,0-9.29,4.22-9.2,10.12s4.72,11,10.08,10.88c5.8-.13,10.16-5.23,9.89-11.58C192.08,115,187.49,111,181.53,111Z"/><path class="cls-5" d="M258.69,131.79c5.3.21,10.05-4.82,10.13-10.72s-3.6-9.79-9.35-9.79-9.71,3.68-9.85,9.44C249.47,126.71,253.47,131.6,258.69,131.79Z"/><path class="cls-5" d="M294.77,447.69h20.11v31.93c11.29-8.33,22.49-8.84,33.75-2.32,13.42,7.77,17.91,20.41,17.85,35.11-.09,18.5-12.1,32.85-29.76,36-8.75,1.56-16.12-.75-22.43-8.22-.41,2.67-.71,4.65-1.06,7H294.77Zm19.37,61.08c.11,12.87,5.8,20.31,15.53,20.31s16.65-7.61,16.56-18c-.09-10.59-7.3-18.2-17.13-18.09C320.24,493.06,314.07,499.58,314.14,508.77Z"/><path class="cls-5" d="M60.76,547H40.48V473.74H61.05c-.14,2.76-.3,5.8-.51,10,7.94-9,17.49-11.08,28-10.88,18.06.34,33.18,12.21,35,30.08,1.47,14.47.3,29.21.3,44.17H103.3c0-6.46,0-12.59,0-18.71,0-5.17,0-10.33,0-15.5C103,499.81,95,491,83.53,491.15c-11.85.15-22.29,10.55-22.39,22.49-.09,10.66,0,21.33,0,32A6.53,6.53,0,0,1,60.76,547Z"/><path class="cls-5" d="M392.91,519c5.91,13.26,16.75,14.63,34.9,5l11.36,12.29c-14.93,16.58-42.3,17.1-57.24,1.24s-13.16-44,4.37-57.33c11.09-8.41,23.72-9.72,36.33-3.87,12.85,6,19.61,16.78,20.34,30.84.61,11.87.24,11.87-11.6,11.85C418.74,519,406.12,519,392.91,519Zm29.78-15.18c-2.23-8.49-8.5-12.76-16.8-11.88-6.74.72-12.05,5.74-12.44,11.88Z"/><path class="cls-5" d="M212.24,473.41h20.09c.1,1.91.26,3.68.28,5.45.08,12.66-.13,25.33.3,38,.32,9.21,7.53,14.37,16.52,12.59,6.89-1.37,10.49-5.74,10.61-13.62.19-12.16.1-24.32.13-36.48,0-1.81,0-3.61,0-5.8h20.39a39.19,39.19,0,0,1,.41,4c.09,13.16.23,26.33.17,39.49-.07,17.45-11,29.5-28.83,31.88-18.95,2.54-35.19-7.09-39.51-23.51a23.7,23.7,0,0,1-.85-5.91q-.12-21.24-.07-42.48C211.88,475.88,212.1,474.76,212.24,473.41Z"/><path class="cls-5" d="M200.78,485.54,190.27,499c-13.19-8.58-22.44-8.69-29.34-.58-6.18,7.28-6.08,18.91.23,25.68,7,7.53,17.61,7.15,29.77-1.4l10.81,13.13c-8.47,11.44-26,16.32-40.6,11.71-15.16-4.79-25.57-19.13-25.8-35.56-.25-16.85,9.17-31.36,23.65-36.43C174.82,470,191.53,473.82,200.78,485.54Z"/><path class="cls-5" d="M4.76,474.16H24.82v73.22c-5.76,0-11.69.19-17.58-.2-.91-.06-2.33-2.77-2.35-4.27-.17-16.63-.12-33.26-.13-49.89C4.75,486.89,4.76,480.76,4.76,474.16Z"/><path class="cls-5" d="M29,452.43a14.62,14.62,0,0,1-14.83,14.33C6.33,466.8-.13,460,0,451.83a15,15,0,0,1,14.9-14.39C22.75,437.47,29.06,444.17,29,452.43Z"/></g></g></svg>