<svg xmlns="http://www.w3.org/2000/svg" viewBox="0 0 308.6 438.45"><defs><style>.cls-1{fill:none;}.cls-2{fill:#ed943b;}.cls-3{fill:#ffc622;}.cls-4{fill:#fcebbb;}.cls-5{fill:#603405;}</style></defs><g id="Camada_2" data-name="Camada 2"><g id="Camada_1-2" data-name="Camada 1"><path class="cls-1" d="M186.7,228.75v0Z"/><path class="cls-1" d="M174.2,142.64q-.16.23-.3.45Q174,142.87,174.2,142.64Z"/><path class="cls-1" d="M178.48,149.53l-5.64-4.42c0-.09.07-.18.1-.27,0,.09-.08.18-.1.27Z"/><path class="cls-1" d="M160.89,135.7l2.28,2.6Z"/><path class="cls-1" d="M176.2,138.78a3.49,3.49,0,0,0-.07-1.28A3.49,3.49,0,0,1,176.2,138.78Z"/><path class="cls-1" d="M175.86,140a9.44,9.44,0,0,1-.75,1.34A9.44,9.44,0,0,0,175.86,140Z"/><path class="cls-1" d="M90.28,190.76l-4,1.92,4-1.92c13.32-2.87,25-.76,34.75,7.18C115.28,190,103.6,187.89,90.28,190.76Z"/><path class="cls-1" d="M269,187c-.42.47-.86.91-1.3,1.36C268.14,187.88,268.58,187.44,269,187Z"/><path class="cls-1" d="M193.18,75.57c1.06.86,2.2,1.64,3.23,2.54-1-.9-2.17-1.68-3.23-2.54-2.92-1.46-6-2.75-8.76-4.42C187.22,72.82,190.26,74.11,193.18,75.57Z"/><path class="cls-1" d="M267.37,188.67a50.05,50.05,0,0,1-6.46,5.27A50.05,50.05,0,0,0,267.37,188.67Z"/><path class="cls-1" d="M197.19,212.54l10.95,9.78-15.51,8.52,15.51-8.52h0Z"/><path class="cls-1" d="M53.32,198.05c-1.36-.8-2.72-1.62-4-2.48C50.6,196.43,52,197.25,53.32,198.05Z"/><path class="cls-1" d="M131.38,272.71c4.32,2.46,8.52,5.14,12.8,7.67.1,9.79.27,19.58.3,29.37,0-9.79-.2-19.58-.3-29.38.06-2,0-4,.12-6-.12,2-.06,4-.12,6C139.9,277.85,135.7,275.17,131.38,272.71Z"/><path class="cls-1" d="M19.18,327.72c.09,1.24.29,2.47.4,3.71h0C19.47,330.19,19.27,329,19.18,327.72Z"/><path class="cls-1" d="M259.25,195.05c-1.27.83-2.56,1.62-3.88,2.39C256.69,196.67,258,195.88,259.25,195.05Z"/><path class="cls-1" d="M163.87,267.32a.44.44,0,0,1,.37-.4l.24-.22h0l-.24.21a.48.48,0,0,0-.38.41,26.16,26.16,0,0,0-.68,4.27,25.15,25.15,0,0,1,.69-4.27Z"/><path class="cls-1" d="M99,222.5h0l-12-5.91Z"/><path class="cls-1" d="M22.36,159.22c.13.61.3,1.2.46,1.8-.16-.6-.33-1.19-.46-1.8Z"/><path class="cls-1" d="M35.12,182.81a47.56,47.56,0,0,1-11.89-20.19,47.56,47.56,0,0,0,11.89,20.19A48.38,48.38,0,0,0,47.3,194.26,48.38,48.38,0,0,1,35.12,182.81Z"/><path class="cls-1" d="M277.57,176.32l-.06.09Z"/><path class="cls-1" d="M100.86,218.06a8.93,8.93,0,0,0-1,1.65A8.93,8.93,0,0,1,100.86,218.06Z"/><path class="cls-2" d="M275.1,225.35a151.72,151.72,0,0,1-24.2,9.93l-23.8,12.31c-11.35,5.87-22.68,11.78-34,17.64-9.26,4.79-18.55,9.53-28.57,14.66-.1-2.13-.21-4.24-.31-6.33s-.21-4.17-.31-6.24a25.15,25.15,0,0,0-.69,4.27q0,57,0,114v28.79c1.56-.62,2.33-.85,3-1.21q28.22-14.46,56.41-28.95c19.09-9.81,38-20,57.35-29.26,6.48-3.08,8.51-6.57,8.47-13.51-.16-25.36-.15-50.72-.11-76.09-4.11-12-7.65-24.68-8.32-40.4C278,224.92,276.07,224.85,275.1,225.35Z"/><path class="cls-2" d="M275.1,225.35c1-.5,2.88-.43,4.92-.44-.06-1.49-.1-3-.11-4.55q-14.52,7.42-29,14.92A151.72,151.72,0,0,0,275.1,225.35Z"/><path class="cls-2" d="M280,224.91c.67,15.72,4.21,28.4,8.32,40.4q0-4.4,0-8.8a141.64,141.64,0,0,1-3.56-32.19A15.61,15.61,0,0,1,280,224.91Z"/><path class="cls-2" d="M287.26,212.35c.24,3.36-1.57,5.05-4.37,6.47l-3,1.54c0,1.54,0,3.06.11,4.55a15.61,15.61,0,0,0,4.77-.59,141.64,141.64,0,0,0,3.56,32.19q0-22,0-44a10,10,0,0,0-.12-1.44l-1.05,0C287.22,211.49,287.23,211.92,287.26,212.35Z"/><path class="cls-2" d="M287.21,211.06l1.05,0c-.22-1.55-.73-3.11-1-4.66C287.23,207.93,287.17,209.5,287.21,211.06Z"/><path class="cls-2" d="M181.1,198.85c11.45-10.19,24.9-12.32,39.44-6.66,1-1.65,1.83-3.05,2.57-4.52,8-15.88,9.73-32.94,9.19-50.36-.83-26.91-10.81-49.73-31.38-67.41-6.77-5.82-14-11.16-23.32-12.53,4.27,4,8.7,7.94,12.73,12.21,1.44,1.53,1.93,4,2.85,6,1.06.86,2.2,1.64,3.23,2.54a10.65,10.65,0,0,1,1,.93A78.9,78.9,0,0,1,217,117.66c2,9.71,2.32,19.39-2.17,28.71-7,14.47-19,24.17-31.49,33.31-15.69,11.49-32.82,20.16-51.87,24.7a40.09,40.09,0,0,1,4.83,33.32c11.58,2.18,22.62,3.26,34.07-.06C168.39,223,169.53,209.15,181.1,198.85Z"/><path class="cls-2" d="M144.33,386.45c-8.66,3.61-16.44,1.94-23.62-3.81a25.56,25.56,0,0,0-4.39-2.34Q72.21,357.74,28.1,335.16a29.87,29.87,0,0,1-3.92-2.88l-4.6-.85h0c-.1,2.47.06,5-.26,7.41,0,.34-.1.69-.16,1-1.65,8.32,2.57,12.41,9.54,15.89C60.58,371.64,92.27,387.91,124,404l20.3,10.3V386.46Z"/><path class="cls-2" d="M19.58,331.43c-.1,2.47.06,5-.26,7.41.32-2.43.16-4.94.26-7.41Z"/><path class="cls-2" d="M62,181.27c-6.7-3.84-13.37-7.74-20.14-11.48-1-.54-2.77-.85-3.52-.32a3.72,3.72,0,0,0-1,3.41c1.55,3.94.47,7.07-2.25,9.93A48.38,48.38,0,0,0,47.3,194.26c.65.45,1.31.89,2,1.31,1.32.86,2.68,1.68,4,2.48,4.09,2.42,8.3,4.66,12.35,7.11,6-5.41,5.83-5.33,2-11.92C65.53,189.42,63.89,185.27,62,181.27Z"/><path class="cls-2" d="M252.16,199.25c1.08-.59,2.15-1.2,3.21-1.81,1.32-.77,2.61-1.56,3.88-2.39.56-.36,1.11-.73,1.66-1.11a50.05,50.05,0,0,0,6.46-5.27c.12-.11.22-.23.33-.34.44-.45.88-.89,1.3-1.36a36,36,0,0,0,3-3.75h0c-5.49-3.57-.42-9.53-2.84-14.48a87,87,0,0,1-7.5,4.72c-5.55,2.74-11.22,5.24-16.83,7.83l-8.56,19.1,5.58,4.46C245.25,202.92,248.74,201.13,252.16,199.25Z"/><path class="cls-2" d="M272,183.22a36,36,0,0,1-3,3.75,37,37,0,0,0,3-3.75Z"/><path class="cls-2" d="M267.7,188.33c-.11.11-.21.23-.33.34C267.49,188.56,267.59,188.44,267.7,188.33Z"/><path class="cls-2" d="M260.91,193.94c-.55.38-1.1.75-1.66,1.11C259.81,194.69,260.36,194.32,260.91,193.94Z"/><path class="cls-2" d="M255.37,197.44c-1.06.61-2.13,1.22-3.21,1.81C253.24,198.66,254.31,198.05,255.37,197.44Z"/><path class="cls-2" d="M108.23,212c-2.43,2-5.46,3.57-7.37,6.07a8.67,8.67,0,0,0-1.78,4.24l1,.78,14.66,7.85,5.13,2.74c1.78-5.7,2.59-10.67-.37-15.63Z"/><path class="cls-2" d="M99.08,222.3h0l1,.78,14.66,7.85-14.66-7.85Z"/><path class="cls-2" d="M197.19,212.54c-2.93,2.43-5.85,4.89-8.81,7.28a8.3,8.3,0,0,1-1.86.84h0c.06,2.52.11,5,.17,7.79v.3c0,1.09.05,2.21.08,3.39,0,.62,0,1.25,0,1.9l5.81-3.2,15.51-8.52Z"/><path class="cls-2" d="M186.52,220.66h0c.06,2.51.11,5,.17,7.79-.06-2.76-.11-5.27-.17-7.79Z"/><path class="cls-2" d="M186.78,232.14c0-1.18-.05-2.3-.08-3.39C186.73,229.84,186.75,231,186.78,232.14Z"/><path class="cls-3" d="M144.18,280.38c-4.28-2.53-8.48-5.21-12.8-7.67-1.43-.82-2.88-1.62-4.35-2.37Q93.4,253,59.68,235.87l-1.8-.91h0l.13.4,7.2,21.45-10.3,22.43v33.43l-9.46-36,6.38-26L39,228.7l.26-.55,1-2.16-10.14-5.17a11.77,11.77,0,0,0-1.44-.62c-1.2-.44-2.61-.84-4.52-1.5V332.28a29.87,29.87,0,0,0,3.92,2.88q44.09,22.62,88.22,45.14a25.56,25.56,0,0,1,4.39,2.34c7.18,5.75,15,7.42,23.62,3.81.07-1.23.2-2.47.25-3.7,0-.41,0-.83,0-1.24q0-35.88-.13-71.76C144.45,300,144.28,290.17,144.18,280.38Z"/><path class="cls-3" d="M125,197.94a47.14,47.14,0,0,1,6.43,6.44c19-4.54,36.18-13.21,51.87-24.7,12.49-9.14,24.52-18.84,31.49-33.31,4.49-9.32,4.19-19,2.17-28.71A78.9,78.9,0,0,0,197.38,79a10.65,10.65,0,0,0-1-.93c-1-.9-2.17-1.68-3.23-2.54-2.92-1.46-6-2.75-8.76-4.42C171.57,63.5,157.64,60,142.87,61.69c-5.56.62-11.07,3.28-16.2,5.82-14.72,7.3-24.46,20-33.63,33-3.65,5.18-7.68,10.88-8.88,16.87-5,24.93-5.82,49.78,6.12,73.42C103.6,187.89,115.28,190,125,197.94Zm89.12-57.6c-.13,4.75-3.72,7.92-8.94,7.92-4.68,0-9.05-3.68-8.89-7.47.25-5.52,4.26-9.58,9.45-9.54C210.68,131.29,214.29,135.22,214.15,140.34Zm-22-29.06c5.75,0,9.44,3.87,9.35,9.79s-4.83,10.93-10.14,10.72-9.21-5.08-9.06-11.07C182.49,115,186.33,111.28,192.2,111.28Zm-57.55,21.66c4.36-4.6,8.39-9.57,13.14-13.71,4-3.45,8.76-3.13,12.56.54,5.13,4.93,9.87,10.29,14.58,15.63a5.14,5.14,0,0,1,1.2,2.1,3.49,3.49,0,0,1,.07,1.28,4.31,4.31,0,0,1-.34,1.2,9.44,9.44,0,0,1-.75,1.34c-.29.44-.6.88-.91,1.32q-.16.23-.3.45a8.61,8.61,0,0,0-1,1.75c0,.09-.08.18-.1.27l5.64,4.42,2,1.6c-6.93,6.63-13.4,13-20.12,19.08-.85.77-3.64.79-4.39,0-7.07-7.22-13.94-14.65-20.74-22.15-.77-.85-.69-2.48-1-3.75C131,140.42,131.14,136.64,134.65,132.94Zm-20.39-22c6,0,10.55,4,10.77,9.42.27,6.35-4.09,11.45-9.89,11.58-5.36.13-10-4.87-10.08-10.88S108.8,111,114.26,111Zm-12.61,20.25c4.92-.09,8.41,3.32,8.55,8.35s-3.07,8.48-8.21,8.62c-4.44.12-7.73-3.41-7.85-8.42S97,131.33,101.65,131.24Z"/><path class="cls-3" d="M287.21,211.06c0-1.56,0-3.13,0-4.7l-.12-.15L277,208.1l-6.38,3.31Q241.12,226.73,211.57,242l-18.45,9.61q-8.88,4.64-17.76,9.25L167,265.26l-1.69.82-.28.17-.07.05-.46.4-.24.22a.44.44,0,0,0-.37.4h0q.15,3.1.31,6.24c.1,2.09.21,4.2.31,6.33,10-5.13,19.31-9.87,28.57-14.66,11.36-5.86,22.69-11.77,34-17.64l23.8-12.31q14.49-7.49,29-14.92l3-1.54c2.8-1.42,4.61-3.11,4.37-6.47C287.23,211.92,287.22,211.49,287.21,211.06Z"/><path class="cls-3" d="M269.16,168.74c2.42,4.95-2.65,10.91,2.84,14.48a49.11,49.11,0,0,0,4.27-5c.43-.58.84-1.18,1.24-1.77l.06-.09a46.93,46.93,0,0,0,4.78-9.26q.63-1.63,1.14-3.33a51.8,51.8,0,0,0,1.3-5.19c-6.6-5.56-13.47-2.73-20.08-.3-5.4,2-10.52,4.7-15.76,7.09h0q-2.05,8-4.12,16c5.61-2.59,11.28-5.09,16.83-7.83A87,87,0,0,0,269.16,168.74Z"/><path class="cls-3" d="M37.37,172.88a3.72,3.72,0,0,1,1-3.41c.75-.53,2.53-.22,3.52.32,6.77,3.74,13.44,7.64,20.14,11.48q-1.57-6.51-3.17-13c-8.07-11.05-25-15.24-36.47-9h0c.13.61.3,1.2.46,1.8s.26,1.08.41,1.6a47.56,47.56,0,0,0,11.89,20.19C37.84,180,38.92,176.82,37.37,172.88Z"/><path class="cls-3" d="M197.19,212.54l10.95,9.78h0L221.91,217h0c-4.95-2.17-9.82-4.53-14.87-6.45C203.52,209.19,199.9,209.07,197.19,212.54Z"/><path class="cls-3" d="M87.07,216.59l12,5.91h0a1.38,1.38,0,0,1,0-.2h0a8.67,8.67,0,0,1,1.78-4.24,10.8,10.8,0,0,1,.76-.89.23.23,0,0,0,.07-.07c1.89-2,4.44-3.34,6.54-5.11h0C100,208.08,93.48,212.09,87.07,216.59Z"/><path class="cls-2" d="M277,208.1l10.07-1.89C283.23,203.2,279.68,203.87,277,208.1Z"/><path class="cls-2" d="M172.84,145.11l-18.94,15-19.63-15.74c.31,1.27.23,2.9,1,3.75,6.8,7.5,13.67,14.93,20.74,22.15.75.76,3.54.74,4.39,0,6.72-6.09,13.19-12.45,20.12-19.08l-2-1.6Z"/><path class="cls-2" d="M196.32,140.79c-.16,3.79,4.21,7.47,8.89,7.47,5.22,0,8.81-3.17,8.94-7.92.14-5.12-3.47-9.05-8.38-9.09C200.58,131.21,196.57,135.27,196.32,140.79Z"/><path class="cls-2" d="M101.65,131.24c-4.65.09-7.62,3.47-7.51,8.55s3.41,8.54,7.85,8.42c5.14-.14,8.36-3.51,8.21-8.62S106.57,131.15,101.65,131.24Z"/><path class="cls-4" d="M28.31,207c-2-1-5.2-2.24-6.65-1.37-1.21.73-1.89,3-2.12,5a13.32,13.32,0,0,0-.1,1.5q-.14,24.28-.19,48.58,0,3.8,0,7.61-.06,29.08-.1,58.17c0,.41,0,.82.05,1.23.09,1.24.29,2.47.4,3.71l4.6.85V218.7c1.91.66,3.32,1.06,4.52,1.5a11.77,11.77,0,0,1,1.44.62L40.28,226l.13-.28,4.65-10.1-10.68-5.49C32.35,209.09,30.34,208,28.31,207Z"/><path class="cls-4" d="M143.35,267a10.78,10.78,0,0,0-3.89-2.88c-1.61-.78-3.2-1.58-4.8-2.38-7.53-3.74-15-7.61-22.46-11.5l-9.55-5-31-16L57.89,235h0l1.8.91Q93.39,253.06,127,270.34c1.47.75,2.92,1.55,4.35,2.37,4.32,2.46,8.52,5.14,12.8,7.66.06-2,0-4,.12-6,0-.66.1-1.32.19-2a6.81,6.81,0,0,0-1-5.26Z"/><path class="cls-4" d="M190.33,69.58c-4-4.27-8.46-8.17-12.73-12.21l-1.38-.8-1.68-.69c-19.47-7.74-42.33-3.2-59.78,7-.57.33-1.12.67-1.68,1-2.11,1.31-4.14,2.71-6.07,4.18a68.44,68.44,0,0,0-7.11,6.23,80.52,80.52,0,0,0-20.58,36.16c-7.5,28-6.36,55.32,6.93,82.17l4-1.92c-11.94-23.64-11.12-48.49-6.12-73.42,1.2-6,5.23-11.69,8.88-16.87,9.17-13,18.91-25.66,33.63-33,5.13-2.54,10.64-5.2,16.2-5.82,14.77-1.66,28.7,1.81,41.55,9.46,2.8,1.67,5.84,3,8.76,4.42C192.26,73.54,191.77,71.11,190.33,69.58Z"/><path class="cls-4" d="M50.77,155.68c-1.25-.34-2.35-1.35-3.6-1.59C40.79,152.88,34.38,150.94,28,151a9.62,9.62,0,0,0-4.17.73,3.31,3.31,0,0,0-.95.72,3.16,3.16,0,0,0-.67,1.12,5.49,5.49,0,0,0-.27,1.49c0,.28,0,.58,0,.89a17.33,17.33,0,0,0,.22,2.09q.09.57.21,1.2c11.49-6.22,28.4-2,36.47,9C59.4,162,57.32,157.43,50.77,155.68Z"/><path class="cls-4" d="M280.22,151c-9.78-1.91-17.73,2.52-26.1,5.87a10.25,10.25,0,0,0-3,1.79,6.15,6.15,0,0,0-.63.62,7.08,7.08,0,0,0-1.51,6.09h0c5.24-2.39,10.36-5.11,15.76-7.09,6.61-2.43,13.48-5.26,20.08.3C286,154.36,285.5,152,280.22,151Z"/><path class="cls-4" d="M223.31,212.51a5.41,5.41,0,0,0-1.22-.77c-5.58-2.58-11.31-5.61-17.27-6.43a15.84,15.84,0,0,0-5.11.08c-7,1.26-12.05,7.29-13.19,15.27h0a8.3,8.3,0,0,0,1.86-.84c3-2.39,5.88-4.85,8.81-7.28,2.71-3.47,6.33-3.35,9.85-2,5.05,1.92,9.92,4.28,14.87,6.45h0C224.9,215.66,224.79,213.78,223.31,212.51Z"/><path class="cls-4" d="M108.23,212h0l11.31,6c-.53-1.54-.72-3.32-1.62-4.59-7.88-11.12-27.38-10.56-35.31,1.27l4.46,1.87C93.48,212.09,100,208.08,108.23,212Z"/><path class="cls-4" d="M151.74,128.91a1.08,1.08,0,0,0-.31.19c-3.15,2.52-6.06,5.33-8.88,7.88,3.42,2.26,5.94,4.05,8.6,5.6a15.5,15.5,0,0,0,3.67,1.11q0-7.45,0-14.9h0C153.83,128.86,152.54,128.58,151.74,128.91Z"/><path class="cls-2" d="M154.84,128.79q0,7.44,0,14.9l8.35-5.39-2.28-2.6-6-6.91Z"/><path class="cls-2" d="M154.84,128.79l6,6.91-6-6.91Z"/><path class="cls-5" d="M308.26,188.8c0-.53-.05-1.12-.12-1.72-.27-2.34-1.05-4.92-2.44-5.75,0,0-5.87-3.39-10.31-5.41q.47-.94.9-1.89c7.66-16.85,2.42-28.85,2.42-28.85-4.64-9.58-13.55-11-22.23-10.63-8.48.4-16.84,3.16-25.64,5A113.94,113.94,0,0,0,228.77,71.6C213.34,50.31,192,38.87,164.86,34.69c6.67-3.83,12-7,17.4-9.94A7.4,7.4,0,0,0,185.87,15c-1-2.49-4.36-4.87-7.14-5.65-6.63-1.85-12.23,1.55-17.45,5.26-2.48,1.77-4.8,3.76-7.45,5.85-.58-4.9-1-9.15-1.62-13.36-.62-4-3.12-7.19-7.09-7.13-3.09,0-7.41,1.32-8.92,3.57a18.08,18.08,0,0,0-2.72,11.58c.88,6.45,3.34,12.69,5.19,19.21C82.72,47.08,60.3,86.16,56.47,140.29a49,49,0,0,0-5.18-1.66c-7.35-1.47-14.71-3.79-22.11-4-8.48-.2-17,1.48-21.52,10.5,0,0-3.2,12.29,2.16,24.41,1,2.28,2,4.43,3,6.52-4.38,2-9.94,5.24-9.94,5.24-1.39.83-2.17,3.41-2.44,5.75a15.25,15.25,0,0,0-.12,1.72q0,9.36-.08,18.7L0,207.45v51.41c0,18,0,36,0,54,0,2.57,0,5.14,0,7.71,0,.22,0,.44,0,.66q0,11.3.12,22.59c0,4.69,1.55,9.36,2.37,14,3,5.91,7.09,10.58,13.22,13.61q35.78,17.64,71.37,35.67c16,8.12,31.85,16.37,47.48,25.08,11.33,6.31,22.38,8.91,34.59,2.53q61-31.84,122.16-63.37c5.9-3,11.09-6.68,14.17-12.76.74-5.25,2.06-10.49,2.11-15.75.05-5.51.08-11,.12-16.53l.34-.07a54.43,54.43,0,0,0,.52-5.69Q308.51,254.71,308.26,188.8ZM221.91,217l-13.77,5.34-15.51,8.52-5.81,3.2c0-.65,0-1.28,0-1.9,0-1.18-.05-2.3-.08-3.39v-.3c-.06-2.76-.11-5.28-.17-7.79,1.14-8,6.21-14,13.19-15.27a15.84,15.84,0,0,1,5.11-.08c6,.82,11.69,3.85,17.27,6.43a5.41,5.41,0,0,1,1.22.77C224.79,213.78,224.9,215.66,221.91,217Zm22.92-35.69q2.05-8,4.12-16a6.94,6.94,0,0,1,2.14-6.71,10.25,10.25,0,0,1,3-1.79c8.37-3.35,16.32-7.78,26.1-5.87,5.28,1,5.78,3.4,4.57,7.58a51.8,51.8,0,0,1-1.3,5.19q-.51,1.7-1.14,3.33a46.93,46.93,0,0,1-4.78,9.26l-.06.09a48.9,48.9,0,0,1-5.51,6.81,37,37,0,0,1-3,3.75c-.42.47-.86.91-1.3,1.36-.11.11-.21.23-.33.34a50.05,50.05,0,0,1-6.46,5.27c-.55.38-1.1.75-1.66,1.11-1.27.83-2.56,1.62-3.88,2.39-1.06.61-2.13,1.22-3.21,1.81-3.42,1.88-6.91,3.67-10.31,5.6l-5.58-4.46Zm-222-28.86a3.31,3.31,0,0,1,.95-.72A9.62,9.62,0,0,1,28,151c6.39,0,12.8,1.9,19.18,3.11,1.25.24,2.35,1.25,3.6,1.59,6.55,1.75,8.63,6.29,8.06,12.56q1.59,6.51,3.17,13c1.89,4,3.53,8.15,5.72,12,3.78,6.59,3.93,6.51-2,11.92-4.05-2.45-8.26-4.69-12.35-7.11-1.36-.8-2.72-1.62-4-2.48-.67-.42-1.33-.86-2-1.31a48.38,48.38,0,0,1-12.18-11.45,47.56,47.56,0,0,1-11.89-20.19c-.15-.52-.27-1.07-.41-1.6s-.33-1.19-.46-1.8h0C21.72,155.87,21.7,153.69,22.87,152.43Zm97,81.24-5.13-2.74-14.66-7.85-1-.78a1.38,1.38,0,0,0,0,.2h0l-12-5.91-4.46-1.87c7.93-11.83,27.43-12.39,35.31-1.27.9,1.27,1.09,3.05,1.62,4.59C122.5,223,121.69,228,119.91,233.67Zm24.67,149.08c-.05,1.23-.18,2.47-.25,3.7v27.89L124,404c-31.76-16.13-63.45-32.4-95.33-48.28-7-3.48-11.19-7.57-9.54-15.89.06-.34.12-.69.16-1,.32-2.43.16-4.94.26-7.41-.11-1.24-.31-2.47-.4-3.71,0-.41-.05-.82-.05-1.23q0-29.08.1-58.17,0-3.81,0-7.61.06-24.3.19-48.58a13.32,13.32,0,0,1,.1-1.5c.23-2,.91-4.26,2.12-5,1.45-.87,4.62.33,6.65,1.37s4,2.08,6.07,3.11l10.68,5.49-4.65,10.1-.13.28-1,2.16-.26.55,12.77,22-6.38,26,9.46,36V279.25l10.3-22.43L58,235.37l-.13-.4h0l13.77-5.66,31,16,9.55,5c7.46,3.89,14.93,7.76,22.46,11.5,1.6.8,3.19,1.6,4.8,2.38a10.78,10.78,0,0,1,3.89,2.88l.11.15a6.81,6.81,0,0,1,1,5.26c-.09.66-.15,1.32-.19,2-.12,2-.06,4-.12,6,.1,9.8.27,19.59.3,29.38q.12,35.88.13,71.76C144.61,381.92,144.6,382.34,144.58,382.75Zm-8.29-145a40.09,40.09,0,0,0-4.83-33.32,47.14,47.14,0,0,0-6.43-6.44c-9.75-7.94-21.43-10.05-34.75-7.18l-4,1.92c-13.29-26.85-14.43-54.2-6.93-82.17A80.52,80.52,0,0,1,99.9,74.35,68.44,68.44,0,0,1,107,68.12c1.93-1.47,4-2.87,6.07-4.18,17.65-10.95,41.37-16,61.46-8.06l1.68.69,1.38.8c9.28,1.37,16.56,6.71,23.32,12.53,20.57,17.68,30.55,40.5,31.38,67.41.54,17.42-1.19,34.48-9.19,50.36-.74,1.47-1.62,2.87-2.57,4.52-14.54-5.66-28-3.53-39.44,6.66S168.39,223,170.36,237.64C158.91,241,147.87,239.88,136.29,237.7ZM280,354.91c-19.37,9.22-38.26,19.45-57.35,29.26q-28.2,14.5-56.41,28.95c-.7.36-1.47.59-3,1.21V385.54q0-57,0-114a26.16,26.16,0,0,1,.68-4.27.48.48,0,0,1,.38-.41l.24-.21h0l.46-.4.07-.05.28-.17,1.69-.82,8.38-4.36q8.87-4.63,17.76-9.25L211.57,242q29.53-15.33,59.08-30.63L277,208.1l10.07-1.89L277,208.1c2.65-4.23,6.2-4.9,10.07-1.89l.12.15c.31,1.55.82,3.11,1,4.66a10,10,0,0,1,.12,1.44q0,22,0,44,0,4.41,0,8.8c0,25.37,0,50.73.11,76.09C288.49,348.34,286.46,351.83,280,354.91Z"/><path class="cls-5" d="M13.42,107.24c6.07,1.19,12.19,2.14,18.29,3.19,6.69.22,10.17-2,10.59-7.13.46-5.78-2.92-8.74-9.63-9.28A132.63,132.63,0,0,1,17.1,91.57c-4.65-.95-10.44,1.24-11.36,4.66C4.56,100.62,8.35,106.24,13.42,107.24Z"/><path class="cls-5" d="M265.18,101.76c0,4.06,4.16,8.79,7.62,8.39,7.51-.89,15-1.86,22.48-3,4.83-.77,7.72-4.84,7-9.22-.69-4.11-4.42-6.52-9.29-6l-20.58,2.34C268.65,94.67,265.16,98.31,265.18,101.76Z"/><path class="cls-5" d="M56.12,63.67c2.73,2.32,6.39,1.17,9-1.52s2.9-6.22.44-9a129.41,129.41,0,0,0-14.37-14.4c-1.73-1.42-5.68-1.22-8.12-.35-1.84.66-2.89,3.55-4,5.07.61,2.26.55,3.81,1.3,4.58C45.46,53.4,50.48,58.9,56.12,63.67Z"/><path class="cls-5" d="M249.65,64.24C255.68,59,262,53.86,267,47.69c3.19-3.95-1.42-10.64-6.87-10.67-.57.1-1.89-.07-2.48.5C252,43,246.18,48.3,241.27,54.37c-1.23,1.52.1,5.86,1.3,8.41A4.33,4.33,0,0,0,249.65,64.24Z"/><path class="cls-5" d="M172.94,144.84a8.61,8.61,0,0,1,1-1.75q.14-.22.3-.45c.31-.44.62-.88.91-1.32a9.44,9.44,0,0,0,.75-1.34,4.31,4.31,0,0,0,.34-1.2,3.49,3.49,0,0,0-.07-1.28,5.14,5.14,0,0,0-1.2-2.1c-4.71-5.34-9.45-10.7-14.58-15.63-3.8-3.67-8.59-4-12.56-.54-4.75,4.14-8.78,9.11-13.14,13.71-3.51,3.7-3.68,7.48-.38,11.4l19.63,15.74,18.94-15C172.86,145,172.91,144.93,172.94,144.84Zm-18.12-1.15a15.5,15.5,0,0,1-3.67-1.11c-2.66-1.55-5.18-3.34-8.6-5.6,2.82-2.55,5.73-5.36,8.88-7.88a1.08,1.08,0,0,1,.31-.19c.8-.33,2.09,0,3.1-.12l6,6.91,2.28,2.6Z"/><path class="cls-5" d="M114.26,111c-5.46,0-9.29,4.22-9.2,10.12s4.72,11,10.08,10.88c5.8-.13,10.16-5.23,9.89-11.58C124.81,115,120.22,111,114.26,111Z"/><path class="cls-5" d="M191.41,131.79c5.31.21,10.06-4.82,10.14-10.72s-3.6-9.79-9.35-9.79-9.71,3.68-9.85,9.44C182.2,126.71,186.2,131.6,191.41,131.79Z"/></g></g></svg>