<svg xmlns="http://www.w3.org/2000/svg" viewBox="0 0 443.14 111.86"><defs><style>.cls-1{fill:#ffc622;}</style></defs><g id="Camada_2" data-name="Camada 2"><g id="Camada_1-2" data-name="Camada 1"><path class="cls-1" d="M294.77,10.25h20.11V42.18c11.29-8.33,22.49-8.84,33.75-2.32,13.42,7.77,17.91,20.41,17.85,35.11-.09,18.5-12.1,32.85-29.76,36-8.75,1.56-16.12-.75-22.43-8.21-.41,2.66-.71,4.65-1.06,7H294.77Zm19.37,61.07c.11,12.87,5.8,20.32,15.53,20.32s16.65-7.62,16.56-18c-.09-10.59-7.3-18.2-17.13-18.09C320.24,55.61,314.07,62.14,314.14,71.32Z"/><path class="cls-1" d="M60.76,109.58H40.48V36.3H61.05c-.14,2.76-.3,5.8-.51,10,7.94-9,17.49-11.08,28-10.88,18.06.34,33.18,12.21,35,30.08,1.47,14.47.3,29.21.3,44.17H103.3c0-6.46,0-12.59,0-18.71,0-5.17,0-10.34,0-15.5C103,62.36,95,53.55,83.53,53.7c-11.85.16-22.29,10.56-22.39,22.5-.09,10.66,0,21.33,0,32A6.7,6.7,0,0,1,60.76,109.58Z"/><path class="cls-1" d="M392.91,81.52c5.91,13.26,16.75,14.62,34.9,5,3.75,4.06,7.56,8.19,11.36,12.29-14.93,16.59-42.3,17.11-57.24,1.25-15.06-16-13.16-44,4.37-57.33C397.39,34.3,410,33,422.63,38.84c12.85,6,19.61,16.78,20.34,30.84.61,11.87.24,11.87-11.6,11.85C418.74,81.5,406.12,81.52,392.91,81.52Zm29.78-15.18c-2.23-8.49-8.5-12.76-16.8-11.88-6.74.72-12.05,5.74-12.44,11.88Z"/><path class="cls-1" d="M212.24,36h20.09c.1,1.91.26,3.68.28,5.45.08,12.66-.13,25.33.3,38,.32,9.21,7.53,14.37,16.52,12.59,6.89-1.37,10.49-5.75,10.61-13.62.19-12.16.1-24.32.13-36.48,0-1.81,0-3.62,0-5.8h20.39a38.9,38.9,0,0,1,.41,4c.09,13.16.23,26.32.17,39.48-.07,17.45-11,29.51-28.83,31.89-18.95,2.54-35.19-7.09-39.51-23.51A23.77,23.77,0,0,1,212,82q-.12-21.24-.07-42.48C211.88,38.44,212.1,37.32,212.24,36Z"/><path class="cls-1" d="M200.78,48.1c-3.45,4.41-7,8.93-10.51,13.41-13.19-8.58-22.44-8.69-29.34-.57-6.18,7.28-6.08,18.91.23,25.68,7,7.53,17.61,7.15,29.77-1.41l10.81,13.14c-8.47,11.43-26,16.32-40.6,11.71-15.16-4.79-25.57-19.13-25.8-35.56-.25-16.85,9.17-31.36,23.65-36.44C174.82,32.51,191.53,36.38,200.78,48.1Z"/><path class="cls-1" d="M4.76,36.72H24.82v73.22c-5.76,0-11.69.19-17.58-.2-.91-.06-2.33-2.77-2.35-4.27-.17-16.63-.12-33.26-.13-49.89C4.75,49.45,4.76,43.32,4.76,36.72Z"/><path class="cls-1" d="M29,15A14.62,14.62,0,0,1,14.18,29.32C6.33,29.36-.13,22.55,0,14.39A15,15,0,0,1,14.9,0C22.75,0,29.06,6.73,29,15Z"/></g></g></svg>